<?xml version="1.0" encoding="UTF-8" standalone="no"?><!DOCTYPE svg PUBLIC "-//W3C//DTD SVG 1.1//EN" "http://www.w3.org/Graphics/SVG/1.1/DTD/svg11.dtd"><svg width="100%" height="100%" viewBox="0 0 21334 14817" version="1.1" xmlns="http://www.w3.org/2000/svg" xmlns:xlink="http://www.w3.org/1999/xlink" xml:space="preserve" xmlns:serif="http://www.serif.com/" style="fill-rule:evenodd;clip-rule:evenodd;stroke-linejoin:round;stroke-miterlimit:2;"><g id="Bats"><g><path d="M2503.35,903.354c-0,-0 33.309,-99.78 163.861,-143.214c0,0 -56.807,-140.551 -33.483,-247.308c-0,-0 319.792,-428.017 875.669,-188.877c-0,-0 -396.609,188.817 -368.461,602.932c0,0 -217.612,23.491 -252.292,220.575c0,0 -355.356,49.105 -319.551,451.376c-238.397,-329.001 -534.371,-142.545 -534.371,-142.545c-153.395,-129.066 -335.027,-8.165 -335.027,-8.165c-243.279,-336.311 -668.918,-227.753 -668.918,-227.753c274.289,-539.378 793.902,-414.942 793.902,-414.942c93.502,72.825 132.47,211.509 132.47,211.509c-0,-0 52.837,-25.16 100.328,-27.965c49.052,-2.614 116.578,33.47 116.578,33.47c-154.472,-127.919 -142.448,-331.937 -142.448,-331.937c0,0 35.804,98.987 95.918,124.894c0,0 16.197,-99.641 109.244,-133.293c88.428,-31.981 169.238,32.577 169.238,32.577c29.633,-58.365 -6.17,-157.352 -6.17,-157.352c0,-0 144.154,155.097 103.513,346.018Z" style="fill:#104065;fill-rule:nonzero;"/><path d="M2333.73,865.618c0,-0 -16.119,-56.945 44.856,-69.921c-0.902,-0.431 11.258,57.946 -44.856,69.921Z" style="fill:#f6bf1a;fill-rule:nonzero;"/><path d="M2270.38,888.53c-0,-0 -24.039,-54.081 -79.207,-25.053c0.417,-0.907 28.415,51.741 79.207,25.053Z" style="fill:#f6bf1a;fill-rule:nonzero;"/></g><g><path d="M3535.2,13780.7c-0,-0 50.294,-148.758 246.107,-213.948c0,-0 -84.604,-209.153 -49.249,-368.266c-0,-0 480.862,-638.778 1313.02,-284.645c0,0 -595.083,282.754 -554.456,899.517c-0,0 -326.211,35.81 -378.925,329.518c0,0 -532.735,74.483 -480.59,673.573c-356.033,-489.186 -800.294,-210.327 -800.294,-210.327c-229.397,-191.68 -502.054,-10.902 -502.054,-10.902c-363.323,-500.057 -1001.61,-336.748 -1001.61,-336.748c413.089,-804.492 1191.33,-621.084 1191.33,-621.084c139.851,108.129 197.729,314.566 197.729,314.566c-0,0 79.278,-37.676 150.46,-42.034c73.521,-4.078 174.584,49.419 174.584,49.419c-231.017,-189.968 -212.23,-493.919 -212.23,-493.919c-0,0 53.284,147.317 143.276,185.682c0,0 24.648,-148.487 164.218,-198.964c132.642,-47.972 253.505,47.89 253.505,47.89c44.629,-87.053 -8.655,-234.369 -8.655,-234.369c0,-0 215.451,230.491 153.828,515.041Z" style="fill:#104065;fill-rule:nonzero;"/><path d="M3281.15,13725.1c-0,-0 -23.943,-84.765 67.485,-104.324c-1.35,-0.638 16.654,86.275 -67.485,104.324Z" style="fill:#f6bf1a;fill-rule:nonzero;"/><path d="M3186.13,13759.4c-0,0 -35.822,-80.469 -118.609,-37.021c0.629,-1.353 42.39,76.968 118.609,37.021Z" style="fill:#f6bf1a;fill-rule:nonzero;"/></g><g><path d="M18693.4,13440.9c0,0 142.985,-64.927 324.385,33.49c0,-0 94.906,-204.685 235.244,-287.595c-0,-0 794.992,-85.407 1105.04,764.131c0,-0 -613.082,-241.26 -1035.66,209.84c0,0 -249.049,-213.696 -499.526,-51.489c0,0 -418.406,-338.052 -820.211,109.381c113.908,-594.202 -393.273,-728.008 -393.273,-728.008c-16.79,-298.458 -335.096,-373.997 -335.096,-373.997c116.864,-606.952 -438.524,-961.372 -438.524,-961.372c869.68,-248.121 1267.54,445.395 1267.54,445.395c16.609,175.991 -94.577,359.307 -94.577,359.307c-0,-0 81.682,32.136 133.502,81.128c53.216,50.891 83.211,161.231 83.211,161.231c-19.147,-298.471 215.625,-492.446 215.625,-492.446c0,-0 -71.156,139.564 -37.677,231.483c0,-0 125.262,-83.468 257.489,-16.059c125.662,64.062 138.253,217.806 138.253,217.806c94.059,-26.9 165.215,-166.465 165.215,-166.465c0,-0 -21.078,314.796 -270.955,464.239Z" style="fill:#104065;fill-rule:nonzero;"/><path d="M18560.3,13217.4c0,0 45.532,-75.401 122.287,-22.014c-0.457,-1.421 -51.616,71.111 -122.287,22.014Z" style="fill:#f6bf1a;fill-rule:nonzero;"/><path d="M18470.3,13171.5c0,0 34.279,-81.138 -54.015,-111.892c1.419,-0.465 -27.233,83.541 54.015,111.892Z" style="fill:#f6bf1a;fill-rule:nonzero;"/></g><g><path d="M19104.3,3935.04c-0,0 142.984,-64.927 324.385,33.49c-0,0 94.905,-204.685 235.243,-287.595c0,-0 794.992,-85.407 1105.04,764.131c-0,-0 -613.083,-241.26 -1035.66,209.84c0,0 -249.049,-213.696 -499.525,-51.489c-0,0 -418.406,-338.052 -820.212,109.381c113.908,-594.202 -393.272,-728.008 -393.272,-728.008c-16.791,-298.458 -335.097,-373.997 -335.097,-373.997c116.864,-606.951 -438.524,-961.372 -438.524,-961.372c869.681,-248.12 1267.54,445.396 1267.54,445.396c16.609,175.99 -94.577,359.306 -94.577,359.306c0,-0 81.682,32.136 133.503,81.128c53.215,50.891 83.21,161.231 83.21,161.231c-19.147,-298.471 215.626,-492.446 215.626,-492.446c-0,-0 -71.157,139.565 -37.678,231.483c0,-0 125.263,-83.468 257.489,-16.059c125.662,64.062 138.254,217.806 138.254,217.806c94.058,-26.9 165.215,-166.465 165.215,-166.465c-0,-0 -21.079,314.796 -270.955,464.239Z" style="fill:#104065;fill-rule:nonzero;"/><path d="M18971.2,3711.59c0,0 45.532,-75.401 122.287,-22.014c-0.457,-1.421 -51.615,71.111 -122.287,22.014Z" style="fill:#f6bf1a;fill-rule:nonzero;"/><path d="M18881.2,3665.69c-0,0 34.278,-81.138 -54.016,-111.892c1.419,-0.465 -27.233,83.541 54.016,111.892Z" style="fill:#f6bf1a;fill-rule:nonzero;"/></g><g><path d="M3613.19,3977.6c0,0 86.766,-69.673 229.952,-34.625c0,-0 27.997,-156.577 109.643,-238.06c0,-0 532.886,-199.214 902.391,325.893c0,-0 -467.197,-56.072 -676.154,326.83c-0,0 -210.974,-101.77 -354.091,53.376c-0,0 -350.601,-156.663 -545.897,220.053c-30.226,-425.904 -404.674,-427.376 -404.674,-427.376c-66.244,-200.809 -299.702,-195.972 -299.702,-195.972c-30.522,-435.133 -478.635,-578.695 -478.635,-578.695c554.62,-323.551 956.144,79.462 956.144,79.462c43.691,117.221 0.547,262.093 0.547,262.093c-0,0 62.244,7.466 106.971,31.732c46.038,25.317 86.941,95.34 86.941,95.34c-67.872,-200.4 58.592,-374.454 58.592,-374.454c-0,0 -23.537,107.905 16.396,164.732c0,0 71.142,-79.191 174.721,-56.6c98.436,21.469 135.28,124.213 135.28,124.213c59.972,-35.038 83.509,-142.942 83.509,-142.942c-0,-0 43.107,218.675 -101.934,365Z" style="fill:#104065;fill-rule:nonzero;"/><path d="M3480.49,3848.6c-0,0 17.607,-59.553 80.343,-36.705c-0.575,-0.889 -22.59,57.703 -80.343,36.705Z" style="fill:#f6bf1a;fill-rule:nonzero;"/><path d="M3409.97,3833.22c0,-0 8.792,-61.476 -57.761,-66.826c0.894,-0.569 -3.491,61.868 57.761,66.826Z" style="fill:#f6bf1a;fill-rule:nonzero;"/></g></g></svg>