<?xml version="1.0" encoding="UTF-8" standalone="no"?><!DOCTYPE svg PUBLIC "-//W3C//DTD SVG 1.1//EN" "http://www.w3.org/Graphics/SVG/1.1/DTD/svg11.dtd"><svg width="100%" height="100%" viewBox="0 0 1662 2817" version="1.1" xmlns="http://www.w3.org/2000/svg" xmlns:xlink="http://www.w3.org/1999/xlink" xml:space="preserve" xmlns:serif="http://www.serif.com/" style="fill-rule:evenodd;clip-rule:evenodd;stroke-linejoin:round;stroke-miterlimit:2;"><g id="change1_1"><path d="M1590.22,2549.33l-241.666,0c-38.278,0 -70.5,-28.666 -74.778,-66.666c-15.5,-136.556 -65.389,-447 -208.334,-588.778c-31,258.167 -122.333,509.111 -59.166,595.944c86.666,119.167 91.889,317.5 -99.778,317.5c-191.667,0 -175.944,-215.389 -175.944,-215.389c-0,0 -220.556,121.945 -263.112,-14.222c-42.555,-136.166 95.056,-158.889 142.334,-320.555c17.278,-59.111 -3.389,-141.389 -33.778,-236.334c-104.722,148.389 -156.333,341.889 -178.389,448.778c-9.611,46.445 -50.5,79.722 -97.944,79.722l-222.445,0c-45.555,0 -77.389,-45 -62.333,-88c18.889,-53.889 56.722,-92.166 88.944,-116.611c62.223,-47.222 117.667,-102.778 163.889,-165.722c98.722,-134.5 172.611,-278.111 227.945,-416.111c-24.5,-97.833 -37.945,-198.778 -19.778,-295.222c55.167,-293 -0,-424.723 -0,-424.723l1.389,-0.166c3.444,-6.722 115.778,-220.5 458.333,-215.445l-186.444,-175.555c-5,-4.722 -4.945,-12.722 0.111,-17.389c34.833,-31.833 158.889,-147 251.5,-255.5c6.444,-7.5 18.611,-4.333 20.555,5.333c12.723,63.222 39.111,245.834 -27.666,446.5c29.111,3.167 55.055,8.445 78.222,15.778c71.5,-117.611 147.055,-184.222 147.055,-184.222l-7.555,74.778c-0,-0 234,-203 5.055,-397.945c-228.944,-195 -440.333,152.222 -440.333,152.222l-5.055,-133.555l-173.612,114.833c-22.666,-165.611 62.889,-472.778 561.112,-419.389c498.222,53.389 485.611,560.945 196.277,771.945c-61.722,45 -107.722,92.555 -141.944,139.5c54.722,111.389 44.111,285.333 36.111,502.833c-8.944,243.5 82.611,502.056 151.333,659.611c33.778,77.389 84.834,146 148.945,200.945c53.5,45.833 82.444,97.055 98.111,138.666c15,40.111 -14.556,82.611 -57.167,82.611Zm-1168.72,-1635.28l170.5,-245.778c3.944,-5.667 2.222,-13.445 -3.722,-16.945c-40.722,-23.944 -185.945,-110.833 -299,-197.777c-7.834,-6 -19.111,-0.389 -19.056,9.5c0.667,66.777 13.611,261.777 131.389,450.5c4.556,7.222 15.056,7.5 19.889,0.5Z" style="fill-rule:nonzero;"/></g><g id="change2_1"><path d="M801.556,638.444c24.222,-22.166 110.444,-102.166 174.833,-177.611c4.444,-5.222 12.944,-3.055 14.333,3.723c9.167,45.5 28.5,180 -24.389,325.333c-2.055,5.555 -9.111,7.278 -13.389,3.222l-151.388,-142.555c-3.556,-3.334 -3.5,-8.889 -0,-12.112Zm-260.834,22.056c-28.278,-16.611 -129.278,-77.056 -207.889,-137.5c-5.444,-4.167 -13.277,-0.278 -13.222,6.611c0.5,46.445 9.445,182 91.389,313.167c3.167,5.055 10.389,5.222 13.778,0.389l118.555,-170.834c2.723,-3.944 1.5,-9.389 -2.611,-11.833Z" style="fill:#5ad0ff;fill-rule:nonzero;"/></g><g id="change1_2"><path d="M1190.67,900.111c-5.723,5.889 -12.389,11.611 -19.723,17.167c-59.222,44.611 -112.388,97.055 -153.555,158.722c-98.333,147.222 -288,144.944 -288,144.944c-0,0 -185.056,41.556 -311.778,-82c-53.111,-51.777 -115.944,-92.055 -183.167,-123.388c-8.277,-3.889 -16.055,-8.112 -22.833,-12.667c0,-0 90.611,-50.445 142.833,-201.833c14.167,-41.056 35.556,-74.167 60.556,-100.945c-30.944,-16.389 40.889,-61.333 40.889,-61.333c-0,-0 -74.889,-22.445 -55.667,-43.834c19.222,-21.444 94.389,31.278 94.389,31.278c3.556,2.611 6,5.611 7.556,8.889c80.889,-42 160.889,-46.111 160.889,-46.111c-0,-0 85.277,-13.556 177.055,14.667c-0.055,-6.223 2.278,-12.167 7.833,-17.167c0,-0 69.334,-60.111 90.667,-40.778c21.333,19.334 -50.889,49.334 -50.889,49.334c0,-0 74.445,36.5 47.945,56.166c27.389,20.389 52.666,46.834 73.333,81.222c82.5,137.167 181.667,167.667 181.667,167.667Z" style="fill-rule:nonzero;"/></g><g id="change3_1"><path d="M971.722,803.222c0,0 -28.5,5.889 -71.889,24.945c-3.389,1.444 -6.889,3.055 -10.5,4.666c-10.444,4.889 -21.666,10.445 -33.389,16.834c-12.388,6.666 -25.333,14.222 -38.777,22.889c-9.056,5.722 -18.278,11.944 -27.667,18.722c-3.167,2.222 -6.333,4.5 -9.556,6.944c-8.777,6.5 -17.666,13.5 -26.611,20.889c0,0 -5.944,-41.611 -2.444,-89.555c0.778,-10.889 2.055,-22.056 4,-33.167c4,-23 10.833,-45.611 22.111,-64.278c2.611,-4.333 5.444,-8.444 8.611,-12.333c5.056,-6.334 10.889,-11.945 17.445,-16.611c3.388,-2.5 7.055,-4.723 10.888,-6.667c2.334,-1.167 4.612,-2.222 6.889,-3.111c88.889,-35.945 150.889,109.833 150.889,109.833Zm-574.555,108.056c-0,-0 28.555,-5.667 75.944,-4.945c3.667,0 7.556,0.111 11.5,0.223c11.5,0.444 24,1.222 37.333,2.5c14,1.333 28.889,3.277 44.612,6c10.555,1.777 21.5,3.888 32.777,6.5c3.778,0.833 7.611,1.666 11.5,2.666c10.611,2.556 21.5,5.556 32.611,8.889c0,0 -10.722,-40.667 -32.555,-83.444c-4.945,-9.723 -10.445,-19.5 -16.556,-29c-12.611,-19.611 -27.722,-37.834 -45.389,-50.611c-4.111,-3 -8.277,-5.667 -12.722,-8c-7.111,-3.889 -14.666,-6.778 -22.555,-8.5c-4.111,-1 -8.334,-1.612 -12.611,-1.889c-2.612,-0.167 -5.112,-0.278 -7.556,-0.167c-95.889,1.389 -96.333,159.778 -96.333,159.778Z" style="fill:#5ad0ff;fill-rule:nonzero;"/></g><g id="change4_1"><path d="M899.833,828.167c-3.389,1.444 -6.889,3.055 -10.5,4.666c-10.444,4.889 -21.666,10.445 -33.389,16.834c-12.388,6.666 -25.333,14.222 -38.777,22.889c-9.056,5.722 -18.278,11.944 -27.667,18.722c-3.167,2.222 -6.333,4.5 -9.556,6.944c-8.222,-14.5 -15.722,-30.555 -22.111,-47.889c-2.555,-7 -4.889,-13.944 -6.944,-20.777c0.778,-10.889 2.055,-22.056 4,-33.167c4,-23 10.833,-45.611 22.111,-64.278c2.611,-4.333 5.444,-8.444 8.611,-12.333c5.056,-6.334 10.889,-11.945 17.445,-16.611c3.388,-2.5 7.055,-4.723 10.888,-6.667c2.334,-1.167 4.612,-2.222 6.889,-3.111c26.111,20.722 52.445,59.5 70.223,107.611c3.388,9.111 6.333,18.222 8.777,27.167Zm-426.722,78.166c3.667,0 7.556,0.111 11.5,0.223c11.5,0.444 24,1.222 37.333,2.5c14,1.333 28.889,3.277 44.612,6c10.555,1.777 21.5,3.888 32.777,6.5c3.778,0.833 7.611,1.666 11.5,2.666c1.945,-16.555 2.611,-34.278 1.778,-52.722c-0.389,-7.444 -0.944,-14.722 -1.667,-21.833c-4.944,-9.723 -10.444,-19.5 -16.555,-29c-12.611,-19.611 -27.722,-37.834 -45.389,-50.611c-4.111,-3 -8.278,-5.667 -12.722,-8c-7.111,-3.889 -14.667,-6.778 -22.556,-8.5c-4.111,-1 -8.333,-1.612 -12.611,-1.889c-2.611,-0.167 -5.111,-0.278 -7.555,-0.167c-16,29.222 -25.167,75.222 -22.834,126.444c0.334,9.667 1.167,19.167 2.389,28.389Z" style="fill:#f65900;fill-rule:nonzero;"/></g><g id="change5_1"><path d="M889.333,832.833c-10.444,4.889 -21.666,10.445 -33.389,16.834c-12.388,6.666 -25.333,14.222 -38.777,22.889c-9.056,5.722 -18.278,11.944 -27.667,18.722c-7.944,-13.334 -15.167,-28.445 -21.222,-44.834c-6.334,-17.166 -10.834,-34.111 -13.389,-50.055c4,-23 10.833,-45.611 22.111,-64.278c2.611,-4.333 5.444,-8.444 8.611,-12.333c5.056,-6.334 10.889,-11.945 17.445,-16.611c27.333,10.722 58.333,49.777 77.555,101.722c3.5,9.444 6.389,18.778 8.722,27.944Zm-404.722,73.723c11.5,0.444 24,1.222 37.333,2.5c14,1.333 28.889,3.277 44.612,6c10.555,1.777 21.5,3.888 32.777,6.5c2.111,-15.389 2.889,-32.112 2.111,-49.556c-0.833,-18.278 -3.277,-35.667 -7.111,-51.333c-12.611,-19.611 -27.722,-37.834 -45.389,-50.611c-4.111,-3 -8.277,-5.667 -12.722,-8c-7.111,-3.889 -14.666,-6.778 -22.555,-8.5c-21,20.5 -34.389,68.555 -31.889,123.888c0.444,10 1.389,19.723 2.833,29.112Zm217.445,12.722l19.166,-27.278c2.278,-3.278 -0.444,-7.667 -4.389,-7.111l-45.389,6.667c-3.944,0.555 -5.277,5.611 -2.166,8.055l26.222,20.611c2.111,1.611 5.056,1.167 6.556,-0.944Z" style="fill:#900;fill-rule:nonzero;"/></g><g id="change4_2"><path d="M878.111,775.833l-71.389,0l33.111,-59.111l38.278,59.111Zm-405.333,73.834l65.778,-27.723l-53.445,-41.611l-12.333,69.334Zm449.666,43.833c-58.611,-13.556 -60.388,55.222 -126.222,68.278c-65.833,13.111 -95.666,-35 -95.666,-35c-0,-0 -9.167,55.833 -75,68.944c-65.834,13.111 -93.778,-49.778 -142.723,-14.833c-56.777,40.5 28.056,223.667 263.667,176.889c235.5,-46.834 243.889,-248.556 175.944,-264.278Zm-105.277,24.167c-2.834,-0 -5.111,2.277 -5.111,5.111c-0,2.833 2.277,5.111 5.111,5.111c2.833,-0 5.111,-2.278 5.111,-5.111c-0,-2.834 -2.278,-5.111 -5.111,-5.111Zm-20.223,15.722c-2.833,-0 -5.111,2.278 -5.111,5.111c0,2.833 2.278,5.111 5.111,5.111c2.834,0 5.112,-2.278 5.112,-5.111c-0,-2.833 -2.278,-5.111 -5.112,-5.111Zm-6.833,-25.889c-2.833,0 -5.111,2.278 -5.111,5.111c0,2.833 2.278,5.111 5.111,5.111c2.833,0 5.111,-2.278 5.111,-5.111c0,-2.833 -2.278,-5.111 -5.111,-5.111Zm-208.111,48.833c0,2.834 2.278,5.111 5.111,5.111c2.833,0 5.111,-2.277 5.111,-5.111c0,-2.833 -2.278,-5.111 -5.111,-5.111c-2.833,0 -5.111,2.278 -5.111,5.111Zm20.222,15.723c0,2.833 2.278,5.111 5.111,5.111c2.834,-0 5.111,-2.278 5.111,-5.111c0,-2.834 -2.277,-5.112 -5.111,-5.112c-2.833,0 -5.111,2.334 -5.111,5.112Zm6.834,-25.945c-0,2.833 2.277,5.111 5.111,5.111c2.833,0 5.111,-2.278 5.111,-5.111c-0,-2.833 -2.278,-5.111 -5.111,-5.111c-2.834,0 -5.111,2.333 -5.111,5.111Zm122.388,-131.222c-4,-16.167 -2.833,-34 -1.777,-51.445c1.222,-17.5 3.611,-35 7.277,-52.222c0.334,-1.5 -0.722,-1.778 -1.111,-0.278c-4.833,17 -8.722,34.334 -11.389,51.889c-2.388,17.5 -5.222,35.445 -1.833,54c1.278,6.389 4.833,8.556 6.945,7.723c2.222,-0.834 3.333,-4.223 1.888,-9.667Zm15.167,-55.111c5.778,-34.111 14.556,-68 27.389,-100.445c0.556,-1.444 -0.389,-1.889 -1.056,-0.444c-15.055,31.555 -27.388,64.722 -35.222,99.167c-2.666,11.777 7,13.388 8.889,1.722Zm42.833,-67c13.278,-27.445 34.112,-51.945 60.612,-68.667c1.166,-0.722 0.611,-1.667 -0.612,-1c-27.833,14.722 -52.166,37.333 -68.111,65.445c-5.222,9.833 3.778,13.666 8.111,4.222Zm42.112,-18.611c17.111,-14.056 37.722,-24.723 60.111,-29.445c1,-0.222 0.833,-1.278 -0.167,-1.166c-22.889,2.333 -45.778,9.888 -65.389,23.277c-6.722,4.778 -0.278,12.167 5.445,7.334Zm-196.223,160.555c-9.222,-33.833 -23.666,-65.944 -41.444,-95.666c-0.778,-1.334 -1.722,-0.778 -1,0.555c15.667,30.833 26.555,63.833 33.611,97.278c2.278,11.389 11.889,9.5 8.833,-2.167Zm-36.666,-56.611c-16.667,-30.111 -39.056,-56.611 -64.667,-78.778c-1.111,-1 -1.833,-0.222 -0.778,0.834c23.889,23.889 43.056,52.111 57.389,82.111c4.722,10.278 13.667,6.278 8.056,-4.167Zm-54.667,-39.167c-19.222,-17.055 -41.556,-30 -64.944,-39.388c-1,-0.445 -1.445,0.555 -0.5,1.055c22.277,11.556 42.055,27.167 59.111,44.889c5.777,6.111 12.889,-0.556 6.333,-6.556Zm-63.111,-13.722c-20.111,-7.722 -41.945,-9.611 -62.611,-7c-0.889,0.111 -0.834,1.167 0.055,1.167c20.723,-0.167 41,5.278 58.889,14.167c6,3.111 10.611,-5.556 3.667,-8.334Zm201.611,117.667c-11.278,-28.778 -24.833,-56.556 -39.333,-83.667c-0.611,-1.166 -1.611,-0.722 -1.056,0.5c12.278,28.167 22.5,57.111 31.778,86.222c3.111,9.945 12.444,6.834 8.611,-3.055Zm22.778,-2.778c-1.722,-26.555 0.222,-53.722 7.111,-79.944c0.278,-1.167 -0.722,-1.5 -1.111,-0.334c-9.222,25.556 -14.834,52.889 -15.111,80.556c0.055,9.5 9.833,8.778 9.111,-0.278Zm-13.722,-86.278c0.888,-22.555 3.777,-45.333 9.777,-67.444c0.278,-1 -0.722,-1.333 -1.111,-0.389c-8.333,21.444 -14.778,43.944 -17.778,67.056c-0.944,7.944 8.889,8.444 9.112,0.777Zm-27.945,-11.722c-11.055,-23.222 -26.944,-42.944 -42.167,-62.722c-0.666,-0.889 -1.555,-0.278 -0.944,0.667c13.222,21.166 26.056,42.833 34.722,65.666c2.834,7.722 12.056,4.445 8.389,-3.611Zm11.722,-44.222c-6.111,-24.889 -11.222,-50.167 -14,-75.889c-0.111,-1.111 -1.166,-1.056 -1.166,0.056c0.333,25.888 1.944,51.944 6.222,77.666c1.5,8.834 11.055,6.667 8.944,-1.833Zm-126.833,230.555c-59.667,-3.722 -119.722,3.612 -176.667,20c-2.5,0.723 -2.222,1.723 0.278,1.112c57.5,-14.056 117.222,-17.667 175.667,-12.056c19.944,2.222 21.222,-7.5 0.722,-9.056Zm-30.167,15.445c-52.389,4.5 -103.944,16.111 -153.389,33.111c-2.166,0.722 -1.833,1.722 0.334,1.111c50.111,-14.611 101.889,-22.667 153.611,-25.111c17.722,-0.722 17.444,-10.5 -0.556,-9.111Zm-59.833,26.722c-32.5,13.389 -63.5,30.167 -93.111,48.778c-1.278,0.833 -0.778,1.722 0.611,1c30.778,-16.5 63,-29.889 95.722,-41.278c11.222,-3.833 8,-13.055 -3.222,-8.5Zm382.889,-82.611c49.722,-35.056 106.167,-61.278 165.944,-75.444c2.611,-0.667 2.389,-1.667 -0.222,-1.167c-60.333,11.833 -118.944,34.944 -170.833,69.055c-17.667,11.945 -11.722,19.778 5.111,7.556Zm51.222,-10.167c33.056,-18.222 68.445,-32.777 105.445,-42c1.611,-0.389 1.388,-1.444 -0.223,-1.166c-37.555,6.833 -74.666,18.222 -109.389,35.055c-11.888,5.889 -7.055,14.389 4.167,8.111Zm54.722,1c30.723,-12.055 63.556,-19.722 97.056,-21.222c1.444,-0.055 1.444,-1.167 -0,-1.167c-33.556,-0.944 -67.722,3.278 -100.111,13.834c-11.111,3.722 -7.389,12.833 3.055,8.555Z" style="fill:#f65900;fill-rule:nonzero;"/></g><g id="change3_2"><path d="M354.444,800.944c-6.222,20 -13.5,39.778 -22.277,58.945c-8.723,19.167 -18.834,37.778 -30.223,55.555c-11.444,17.778 -24.222,34.778 -38.611,50.5c-7.166,7.834 -14.666,15.5 -22.722,22.5c-8.167,7.112 -16.222,13.667 -25.944,19.723l0.444,-10.611c4.833,3.111 9.945,5.944 15.222,8.5l16.389,7.666c11.111,5.278 22.056,11 32.667,17.167c21.333,12.222 41.722,25.944 61.611,40.055c19.944,14.112 39.333,28.723 58.833,43c19.5,14.445 38.778,28.389 59.167,40.667c40.778,24.611 84.944,43.278 130.722,55.222c45.834,11.945 93.611,16.056 140.5,11.556c46.889,-4.333 93.111,-17 135.389,-38.222c21.167,-10.445 41.389,-22.889 60.667,-36.556c19.278,-13.778 37.278,-29.389 54.333,-45.889l12.611,-12.666l12.056,-13.223c8.055,-8.722 15.889,-18.166 23.833,-27.277c15.945,-18.278 31.945,-36.667 48.611,-54.556c16.611,-17.889 33.889,-35.333 52.334,-51.611c9.222,-8.111 18.722,-15.945 28.5,-23.389l14.444,-10.889c4.611,-3.611 9,-7.444 13.111,-11.5l2.667,10.333c-10.778,-3.888 -20.056,-8.666 -29.5,-13.888c-9.389,-5.223 -18.278,-11.112 -26.945,-17.334c-17.333,-12.389 -33.333,-26.389 -48.222,-41.444c-14.833,-15.056 -28.611,-31.167 -41.111,-48.111c-12.556,-16.945 -23.778,-34.778 -34,-53.056c11.389,17.667 23.833,34.5 37.111,50.611c13.222,16.167 27.556,31.389 42.833,45.5c15.334,14.056 31.667,26.945 49.056,38.167c8.667,5.611 17.611,10.833 26.722,15.555c9,4.667 18.667,9.056 27.778,12l9.5,3.056l-6.833,7.278c-4.334,4.666 -9,8.944 -13.778,13c-4.889,4.055 -9.611,7.722 -14.222,11.5c-9.223,7.555 -18.223,15.444 -26.889,23.722c-17.5,16.333 -34,33.778 -49.945,51.833c-15.944,18 -31.389,36.667 -46.833,55.278c-7.889,9.278 -15.389,18.667 -23.611,27.889l-12.278,13.889l-12.889,13.333c-17.5,17.445 -36,34 -56,48.722c-19.944,14.723 -41.222,27.778 -63.5,38.945c-44.389,22.5 -93.278,36.278 -142.889,41.055c-49.666,4.556 -100,-0.111 -148,-12.833c-48.055,-12.555 -93.777,-33.055 -135.666,-59.167c-42.167,-26.444 -78.889,-58.166 -117.611,-86.944c-19.278,-14.444 -38.945,-28.278 -59.334,-40.778c-10.166,-6.333 -20.555,-12.222 -31.111,-17.722l-16.278,-8.278c-5.5,-2.944 -10.944,-6.166 -16.166,-9.833l-8.167,-5.611l8.611,-4.945c8.278,-4.722 16.833,-11.055 24.667,-17.5c7.944,-6.5 15.611,-13.444 22.889,-20.722c14.666,-14.555 27.944,-30.611 40.055,-47.5c12.056,-16.944 22.889,-34.833 32.5,-53.389c9.556,-18.555 18.278,-37.611 25.722,-57.278Zm141.834,496.834c-2.834,36.444 -7.334,72.778 -13.111,108.833c-2.889,18.056 -6.111,36.056 -9.611,53.945c-3.334,18 -6.5,36.277 -8.167,54.666c-3.556,36.722 -3.111,73.834 0.111,110.556c6.611,73.555 24.222,145.444 44.889,215.889c20.667,70.5 45.278,139.666 66.222,209.444c10.278,34.945 20,70.056 25.5,105.556c5.389,35.389 7.5,71.444 -3.722,104.333c-10.667,33.944 -27.445,65.611 -48.556,94.5c-10.5,14.5 -21.944,28.389 -33.777,42.278c-11.778,13.944 -23.945,27.889 -35.056,43.278c-11.111,15.277 -21.111,32.444 -26.833,51.611c-3.056,9.5 -4.445,19.5 -5.167,29.389c-0.111,4.944 -0.389,9.944 0.056,14.888c0.111,4.945 0.777,9.834 1.444,14.667c1.389,9.722 3.778,19.111 6.444,28.333c1.556,4.667 3.445,9.389 5.167,14.056c2.389,4.5 4.445,9.167 7.222,13.444c10.889,17.389 28.167,31.612 47.556,38c9.555,3.723 19.444,5.278 29.278,6.667c9.777,0.833 19.611,1.167 29.222,0.445c19.278,-1.167 38,-4.667 56.222,-9.556c18.222,-4.889 36,-10.889 53.333,-17.889c17.389,-7 34.167,-14.611 51.056,-23.611l-16.389,-10.5c-0.611,10.5 -0.389,20.111 0.167,30.056c0.611,9.888 1.555,19.722 3.111,29.5c3.111,19.555 7.889,39 15.444,57.611c7.389,18.666 17.5,36.555 30.778,52.111c13.111,15.666 29.5,28.889 47.889,38.055c18.278,9.334 38.167,14.889 58.056,17.556c20,2.722 39.888,2.555 59.722,0.444c19.833,-2.222 39.833,-7 58.389,-15.833c18.5,-8.778 35.722,-21.5 48.444,-37.944c12.833,-16.334 21.667,-35.445 26.722,-55.112c4.889,-19.722 6.389,-39.944 5.5,-59.833c-1.944,-39.833 -13,-78.444 -29.944,-113.889c-8.445,-17.722 -18.833,-34.778 -30.222,-50.5c-9.778,-13.722 -14.834,-31.278 -17.334,-49.222c-2.555,-18.056 -2.889,-36.722 -2.111,-55.444c0.722,-18.723 2.5,-37.5 4.889,-56.278c9.611,-75.167 25.833,-149.889 39.889,-224.945c14.278,-75.055 27.333,-150.611 34.833,-226.889c7.056,-76.222 8.667,-153.444 -2.055,-229.5c-11.889,-75.722 -31.389,-150 -58.722,-221.333c12.611,36.056 23.166,72.778 31.833,109.889c4.444,18.556 8.389,37.167 11.889,55.889c3.5,18.722 6.778,37.5 9.055,56.333c8.945,75.611 5.611,152.056 -3.055,227.556c-8.5,75.611 -22.5,150.555 -37.778,225.278c-15.056,74.777 -32.278,149.222 -43.111,225.444c-2.667,19.056 -4.722,38.278 -5.778,57.722c-1,19.389 -1.055,39.056 1.611,58.889c2.667,19.667 7.945,40.056 20.278,57.778c10.944,15.278 20.333,31 28.222,47.833c15.722,33.445 25.778,69.834 27.278,106.334c0.722,18.222 -0.833,36.444 -5.278,53.777c-4.611,17.223 -12.333,33.445 -23.166,47.056c-10.778,13.722 -25.112,24.333 -41,31.833c-15.945,7.5 -33.612,11.778 -51.612,13.778c-36.166,3.889 -73.944,0.111 -105.5,-15.944c-31.777,-15.834 -55.055,-45.278 -68.111,-78.945c-6.777,-16.778 -11.166,-34.667 -14,-52.833c-1.444,-9.056 -2.333,-18.222 -2.889,-27.445c-0.555,-9.055 -0.722,-18.611 -0.277,-27.166l1.055,-19.723l-17.444,9.223c-31.222,16.5 -65.111,30.389 -99.278,39.666c-17.167,4.667 -34.556,7.889 -51.889,8.945c-8.667,0.666 -17.222,0.333 -25.667,-0.334c-8.277,-1.166 -16.611,-2.444 -24.166,-5.388c-15.5,-5.167 -28,-15.612 -36.667,-29.112c-2.167,-3.333 -3.833,-7.166 -5.778,-10.722c-1.389,-3.889 -2.944,-7.722 -4.277,-11.722c-2.445,-8.333 -4.612,-16.722 -5.778,-25.167c-0.611,-4.222 -1.167,-8.444 -1.278,-12.666c-0.389,-4.223 -0.167,-8.389 -0.056,-12.556c0.667,-8.333 1.667,-16.611 4.223,-24.555c4.611,-16.056 13.111,-31.167 23.389,-45.5c20.666,-28.667 46.611,-55.389 68.222,-86c21.889,-30.334 39.666,-64.334 50.722,-100.389c5.667,-18.167 8.833,-37.945 8.611,-56.889c-0.167,-19 -1.889,-37.834 -5.278,-56.167c-6.222,-36.833 -16.611,-72.333 -27.444,-107.5c-22.111,-70.167 -47.556,-138.778 -69.056,-208.555c-21.555,-69.667 -39.666,-140.612 -47.5,-212.945c-3.944,-36.111 -5.222,-72.555 -2.5,-108.778c1.223,-18.166 3.889,-36.055 6.834,-54.111c3.166,-18.055 5.944,-36.222 8.444,-54.389c10,-72.666 14.833,-146.222 10.611,-219.389c0.834,36.778 -0.5,73.389 -3.444,109.834Zm215.222,311.444c19.833,80.889 35.222,162.889 47.778,245.111c12.833,82.223 22.111,164.945 26.833,247.834c4.5,82.889 2.611,165.889 -3.778,248.111l-2.722,30.833l-3.889,30.667c-1.055,10.278 -3.166,20.333 -4.722,30.555c-0.889,5.056 -1.611,10.223 -2.611,15.223l-3.111,15.111c-8.5,40.333 -19.556,80.277 -35.667,118.722l2,1c21.611,-35.945 37.389,-75.5 48.889,-116c11.556,-40.556 19.444,-82.167 24,-124c4.722,-41.833 6.389,-83.945 5.889,-125.889c-0.889,-41.944 -3.056,-83.833 -6.445,-125.556c-6.944,-83.444 -18.5,-166.333 -33.611,-248.444c-15.555,-82.056 -33.889,-163.556 -56.611,-243.833l-2.222,0.555Zm267.833,1178.61c13.278,-58.611 10.667,-119.722 -4.389,-176.389c-0.611,-2.5 -2.722,-2 -2.277,0.5c10.222,57.556 5.389,116.723 -11,171.278c-5.834,18.445 12.722,24.778 17.666,4.611Zm-103.444,-0.277c-18.778,-53.5 -24.167,-113 -12.167,-170.167c0.5,-2.5 -1.555,-3.056 -2.278,-0.556c-16.777,56.167 -18.944,118 -3,176.111c5.945,20 24.167,12.612 17.445,-5.388Zm-316.333,-163.056c21.388,-60.056 57.944,-116 107.444,-158.611c2.167,-1.889 0.833,-3.556 -1.444,-1.833c-52.778,38.944 -96.612,92 -123,153.833c-8.667,21.444 10.111,27.167 17,6.611Zm-77,-50c19.722,-46.222 47.222,-90.056 83.055,-126.889c1.556,-1.611 0.111,-3.222 -1.611,-1.722c-39.278,33.389 -73.556,74.111 -97.944,120.778c-8.167,16.222 10,23.611 16.5,7.833Zm-260.834,-41.722c15.445,-67.167 50.889,-131.056 103.111,-178.834c2.278,-2.111 0.889,-3.777 -1.5,-1.777c-55.611,44.222 -98.889,106 -119.222,176c-6.5,24.333 12.833,27.555 17.611,4.611Zm-113.5,-0.334c13.834,-58.333 41.278,-114.611 81.722,-160.888c1.778,-2.056 0.223,-3.556 -1.722,-1.612c-44.166,43.056 -79,97.278 -97.611,157.667c-6.055,21 13.222,24.778 17.611,4.833Zm1437.17,-3c-7.333,-67.888 -33.778,-132.555 -72.889,-186.555c-1.722,-2.389 -3.444,-1.222 -1.944,1.333c34.944,56.556 53.666,121.834 56.666,186.667c0.611,22 20.278,22.055 18.167,-1.445Zm-126.722,1.889c-7.223,-65.722 -31.611,-128.5 -67.5,-182.333c-1.556,-2.389 -3.389,-1.278 -2,1.222c31.611,56.222 48.333,119.611 51.333,182.556c0.667,21.389 20.278,21.278 18.167,-1.445Z" style="fill:#5ad0ff;fill-rule:nonzero;"/></g><g id="change1_3"><path d="M855.944,849.667c-12.388,6.666 -25.333,14.222 -38.777,22.889c-7.778,-13.723 -15.556,-30.5 -22.389,-49.056c-14.222,-38.333 -20.611,-73.5 -17.778,-91.389c2.611,-4.333 5.444,-8.444 8.611,-12.333c13.722,-1.111 38.667,36.111 57.111,86c5.722,15.444 10.167,30.389 13.222,43.889Zm-334.055,59.389c14,1.333 28.889,3.277 44.611,6c1.833,-15.667 2.5,-34.167 1.556,-53.889c-1.778,-40.834 -9.612,-75.723 -19.167,-91.111c-4.111,-3 -8.278,-5.667 -12.722,-8c-13.056,4.333 -21.611,48.277 -19.167,101.444c0.722,16.444 2.444,31.944 4.889,45.556Zm435.555,73.888c-8.222,-8 -16.555,-15.777 -24.888,-23.611c-8.278,-7.889 -16.778,-15.555 -25.223,-23.222l-3.277,-3l-1.778,4.278c-6.667,15.944 -13.5,31.833 -19.889,47.889c-6.556,16 -12.945,32.055 -19.278,48.166l8.111,-1.611c-18.389,-19.444 -37,-38.722 -56.166,-57.444l-4.334,-4.222l-2.333,5.333l-23.278,53.111c-7.722,17.722 -15.778,35.278 -23.944,52.778l2.944,-0.167l-25,-41l-24.389,-41.333l-4,-6.778l-1.666,7.833l-10.334,49.056l-9.944,49.167l8.722,-2.556c-24.667,-26.389 -49.056,-53 -73.944,-79.167l-6.723,-7.055l-3.222,9.167c-4.555,13.055 -9,26.222 -13.389,39.333c-4.389,13.111 -8.833,26.278 -13.111,39.444l8.833,-1.889l-33.444,-34.666c-11.111,-11.611 -22.444,-22.945 -33.722,-34.445l-3.667,-3.722l-1.722,4.778c-8.278,22.889 -16.333,45.833 -24.167,68.944l1.056,0.389c9.944,-22.222 19.722,-44.555 29.166,-66.944l-5.388,1c10.611,12.055 21.166,24.166 31.944,36.055l32.222,35.834l5.778,6.444l3.056,-8.333c4.777,-13 9.388,-26.056 14,-39.111c4.611,-13.056 9.222,-26.111 13.722,-39.223l-9.889,2.167c24.778,26.222 50.111,52 75.167,78l7,7.278l1.666,-9.889l8.389,-49.444l7.945,-49.5l-5.667,1.055l26.167,40.222l25.611,40.611l1.611,2.612l1.333,-2.778c8.333,-17.445 16.667,-34.834 25.445,-52.056l26.166,-51.722l-6.666,1.111c17.888,19.945 36.333,39.389 54.944,58.611l5.389,5.556l2.722,-7.167c6.167,-16.167 12.333,-32.333 18.278,-48.555c6.111,-16.167 11.778,-32.5 17.667,-48.778l-5.056,1.278c8.833,7.277 17.611,14.555 26.611,21.611c8.945,7.111 17.833,14.277 26.945,21.277l0.888,-1Z" style="fill-rule:nonzero;"/></g><g id="change3_3"><path d="M1223.67,1294.06c-26.278,183.277 -0,444.666 -0,444.666c-58.723,-152.666 -59.945,-258.222 -57.834,-296.055c1.223,-21.5 0.723,-43.056 -2.055,-64.445c-15.722,-120.389 -78.389,-113.944 -78.389,-113.944c133.111,-103 63.833,-243.834 63.833,-243.834c0,0 100.722,90.334 74.445,273.612Zm-334.334,63.833c0,-0 -52.444,-68.111 -115.389,-65.945c-62.944,2.167 -112.055,74.445 -112.055,74.445c-0,-0 -23.167,-136.889 -119.333,-85.833c-0,-0 103.611,22.444 100.888,146.666c0,0.056 76,-138.166 245.889,-69.333Zm-437.277,606.389c-0,-0 -70.945,148.944 -173.056,263.833c0,0 127,-72.278 173.056,-263.833Zm994.333,-1398.61l-29.778,-31.223c1.445,117.723 -73.778,210.278 -73.778,210.278l-2.833,-57.055c-36.889,83.722 -111.944,184.889 -111.944,184.889c49.777,-63.334 164.444,-106.889 246.666,-282.834c82.278,-175.944 12.778,-273.722 12.778,-273.722c14.833,115.389 -41.111,249.667 -41.111,249.667Zm-400.889,-482.278c0,-0 -372.167,-32.778 -425,310.611l124.889,-78c-0,0 -0.611,-75.167 97,-119.167c97.611,-44 149.222,-38.277 149.222,-38.277l-100.278,-19.834l154.167,-55.333Z" style="fill:#5ad0ff;fill-rule:nonzero;"/></g></svg>