<?xml version="1.0" encoding="UTF-8" standalone="no"?><!DOCTYPE svg PUBLIC "-//W3C//DTD SVG 1.1//EN" "http://www.w3.org/Graphics/SVG/1.1/DTD/svg11.dtd"><svg width="100%" height="100%" viewBox="0 0 21334 12000" version="1.1" xmlns="http://www.w3.org/2000/svg" xmlns:xlink="http://www.w3.org/1999/xlink" xml:space="preserve" xmlns:serif="http://www.serif.com/" style="fill-rule:evenodd;clip-rule:evenodd;stroke-linejoin:round;stroke-miterlimit:2;"><g id="QR-Highlight" serif:id="QR Highlight"><path d="M11824.6,1020.92c-70.112,-130.369 -163.477,-179.139 -258.345,-221.814c6.367,-25.792 8.842,-65.653 8.134,-115.831c-53.226,-9.379 -75.506,87.225 -133.063,63.308c17.859,-60.494 3.448,-109.734 -25.11,-85.818c16.446,-74.563 68.079,-29.075 66.664,54.868c10.522,-7.972 8.4,-57.681 -0.089,-57.681c135.539,38.923 275.233,-80.66 391.32,42.205c-68.167,-249.482 -289.379,-244.323 -391.762,-389.229c6.454,-67.06 51.457,-30.013 41.731,56.274c10.963,-29.544 30.945,-29.075 33.155,-88.163c90.27,94.728 192.92,130.369 283.101,105.045c102.914,207.746 241.635,289.812 300.519,653.718c3.714,234.944 -8.134,360.154 0.796,549.611c-26.524,244.792 -55.789,480.675 -107.335,640.118c36.25,237.758 57.469,416.897 59.237,663.097c-10.875,47.364 -61.27,106.451 -24.755,145.843c-17.242,36.579 -35.012,71.75 -49.778,117.707c4.244,75.501 46.064,95.666 25.199,172.105c-28.824,24.386 -32.006,-41.737 -58.265,-26.73c6.366,169.76 67.46,240.572 83.905,459.572c20.247,269.647 -17.595,592.754 -15.383,926.178c-81.43,2.814 -52.518,428.153 -165.953,382.195c85.672,185.236 210.69,375.63 316.875,392.512c19.098,117.238 46.506,427.683 0.707,520.536c9.726,52.522 21.838,97.072 33.509,143.498c-17.418,71.75 -84.966,3.752 -58.088,146.782c-83.109,71.749 -190.621,-31.889 -249.328,211.966c0.973,74.094 31.122,45.488 41.732,85.349c2.652,73.625 -15.384,169.291 -7.957,231.662c46.682,60.026 23.518,109.265 66.753,113.017c-10.256,80.191 -26.082,141.154 -58.088,146.782c25.463,74.563 72.145,74.094 83.463,199.304c-94.868,137.871 -136.246,43.613 -241.282,67.529c150.569,146.313 285.223,348.9 408.648,591.347c1.592,126.148 3.183,252.765 -16.356,232.132c15.737,90.508 28.115,23.447 41.555,-30.482c9.106,249.013 13.793,401.422 59.06,547.265c-16.445,205.87 -74.444,124.742 -124.575,178.201c7.427,138.81 18.744,263.551 58.618,286.998c-26.082,263.55 -167.632,226.972 -215.907,326.389c19.098,172.574 71.173,29.544 116.529,-4.689c-11.405,117.706 18.213,90.508 16.887,173.042c-148.094,29.076 -161.355,265.896 -316.08,185.705c-4.067,753.136 -113.258,1147.52 -172.319,1713.08c-72.322,-70.342 -104.151,57.212 -141.286,179.139c-3.714,80.66 45.268,-24.854 41.642,55.806c-64.984,101.292 -156.403,85.348 -249.504,125.678c-86.911,37.985 -160.295,38.923 -216.437,-77.846c-428.454,286.998 -764.249,60.495 -1214.98,191.801c-7.427,-92.383 27.408,-40.33 24.755,-116.299c-138.544,-3.283 -381.329,213.372 -515.983,48.771c-26.789,27.199 -11.759,-93.791 -25.109,-114.894c-105.213,17.352 -199.904,203.525 -266.303,10.317c-149.684,-44.081 -315.637,193.208 -424.563,16.882c-437.384,39.86 -789.801,144.437 -1157.07,-70.343c-209.187,-53.46 -379.914,23.448 -591.046,-34.702c29.618,-138.34 99.289,-140.216 157.907,-179.608c-76.92,-47.833 -202.291,-57.212 -307.945,-16.882c-353.302,135.058 -721.458,90.977 -1082.01,13.6c-16.622,-66.592 2.033,-32.358 8.222,-87.226c-70.907,-92.852 -145.264,36.578 -208.038,66.123c-15.649,-54.398 -1.061,-72.688 -0.176,-144.906c-71.174,-37.047 -50.219,87.225 -91.42,119.113c-38.726,27.2 11.405,-75.032 -16.71,-86.287c-17.772,-12.661 -15.827,42.206 -16.534,87.695c-95.398,-39.861 -171.7,-65.654 -283.013,-17.821c-34.304,15.006 6.366,-72.687 -16.798,-114.893c-139.959,-10.317 -338.537,158.036 -490.963,76.907c-72.322,-37.984 -118.12,4.69 -199.815,8.442c-69.847,2.813 -138.191,-149.127 -216.614,-194.146c-64.454,-36.578 -160.471,82.066 -257.992,9.848c1.769,-41.737 24.756,-10.787 24.756,-58.619c-283.101,52.053 -630.568,59.088 -898.639,208.683c-323.418,-110.672 -697.585,169.76 -990.235,154.285c7.073,-43.612 20.866,-63.308 41.554,-59.557c-286.195,-115.831 -725.701,-135.996 -1090.41,-72.688c-34.57,16.414 -35.454,147.25 -83.021,118.645c-22.103,166.009 -89.032,177.732 -132.886,236.82c-7.692,10.317 -32.536,86.756 -41.554,88.163c-132.886,30.012 -93.277,-504.592 -167.545,-774.239c-39.255,84.88 -79.926,118.176 -116.529,4.689c2.741,-182.89 63.57,-166.008 82.844,-292.156c-10.698,-40.798 -46.771,-92.852 -49.866,1.876c-18.92,-58.15 -18.567,-150.533 -0.265,-202.586c-29.53,-14.538 -20.247,103.169 -49.777,88.631c-3.625,-60.495 5.57,-76.908 8.223,-116.3c-26.613,-15.944 -25.729,55.337 -41.732,1.876c-2.21,-180.546 2.034,-338.583 32.802,-406.111c-167.364,-184.295 -302.991,-653.714 -442.773,-1023.25c3.713,-179.139 45.975,-226.503 49.423,-406.581c101.942,-106.451 167.545,-159.443 290.97,-185.236c19.805,-57.212 -15.384,-161.319 8.046,-231.661c35.012,27.199 83.905,18.758 108.13,-120.052c-30.591,-41.267 -45.621,-8.441 -83.286,-54.398c5.482,-67.529 27.586,-78.783 33.067,-146.313c-52.871,-165.54 31.299,-423.462 -0.884,-607.291c14.146,-67.06 46.948,45.488 74.975,26.261c-43.765,-89.101 44.649,-51.585 58.088,-118.176c-3.537,-60.026 -69.493,65.184 -49.954,-55.805c-83.286,45.488 -58.795,-18.758 -124.84,5.158c10.079,-439.876 138.102,-610.105 273.552,-820.664c-19.009,-87.694 -50.484,-255.109 -33.862,-374.692c-11.317,-55.336 -46.594,49.709 -66.487,60.026c-0,-86.287 21.484,-98.949 24.667,-173.981c-19.716,-69.874 -15.472,43.613 -41.555,30.013c24.491,-170.229 69.671,-115.362 107.954,-206.338c-37.841,-109.735 -77.362,-4.69 -124.841,5.158c3.537,-45.957 26.082,-26.261 16.534,-116.3c-23.695,-4.22 -16.18,98.48 -49.866,59.557c-4.155,-90.508 25.464,-66.591 16.445,-173.981c-42.88,33.764 -95.221,61.432 -133.151,33.764c-0.177,-105.983 29,-111.61 41.378,-174.919c-27.585,-46.895 -46.948,30.013 -83.109,31.889c-3.449,-127.086 -3.625,-260.737 57.822,-291.219c-2.741,-67.06 1.238,-111.141 8.134,-145.375c-34.923,-81.129 -50.219,-31.42 -124.928,-52.991c-13.263,-129.431 34.481,-226.504 24.49,-318.887c-22.899,-211.027 -69.316,-171.166 -133.682,-168.352c26.701,-116.769 14.235,-191.801 41.201,-290.75c-41.554,-86.756 -10.875,-193.677 -8.841,-375.629c14.942,-4.221 17.594,34.702 33.332,27.668c18.921,-309.508 164.538,-185.705 182.398,-498.495c-38.46,-57.681 -14.677,-335.3 -50.484,-403.298c46.417,-378.444 4.597,-1058.89 156.58,-1076.24c-8.841,-124.272 -35.984,-182.891 -83.462,-170.229c7.603,-132.713 -17.771,-150.533 -50.042,-143.03c13.262,-147.251 18.301,-157.568 -16.976,-230.255c37.753,-254.64 27.939,-511.157 65.338,-870.373c343.93,100.824 821.011,95.666 1124.01,187.111c8.046,-0.938 6.366,-35.64 8.223,-58.15c65.957,159.913 167.898,66.591 232.971,-37.985c-4.333,23.448 -8.577,47.364 -8.134,87.225c36.338,18.758 46.77,-50.646 83.109,-31.888c71.615,60.963 336.857,-120.521 507.495,-135.527c187.261,-16.882 382.214,-151.94 474.076,-279.026c29.795,247.606 125.017,151.94 224.924,135.527c25.287,-11.724 14.235,105.045 33.421,114.424c51.014,-128.962 199.285,69.405 257.903,-96.604c4.951,-75.501 -3.448,-104.107 -25.021,-86.287c58.972,-102.231 132.974,10.317 199.638,-65.653c-5.481,-29.075 -19.186,-29.075 -16.71,-86.287c113.789,32.357 234.65,127.554 308.299,277.15c40.494,-59.557 65.515,30.013 99.996,53.929c98.935,68.467 248.355,-64.715 366.122,-72.218c362.939,-23.917 719.512,134.589 1057.16,16.413c5.482,29.075 19.186,29.075 16.71,86.287c263.562,-22.51 473.545,-126.617 732.244,-115.362c2.476,-76.439 -17.417,-74.094 -33.42,-85.818c66.222,-30.951 128.554,76.908 183.281,137.403c57.646,-202.587 102.383,27.668 183.106,22.04c4.774,63.778 -15.738,41.737 -16.534,87.694c270.812,99.418 512.89,-350.775 790.509,-118.175c10.698,-49.709 27.32,-79.253 49.866,-88.163c-7.78,184.767 -84.877,131.775 -124.575,206.807c127.581,4.69 281.51,-90.038 432.875,69.874c52.606,-271.054 203.352,-106.452 324.302,-186.174c2.387,46.895 -7.78,50.178 -8.223,87.225c39.256,-2.813 63.216,48.771 99.996,53.93c0.53,-98.48 -30.945,-84.412 -58.354,-84.412c66.399,-143.499 159.587,103.17 191.151,-181.484c45.092,33.765 75.329,33.765 99.819,-61.901c2.388,46.895 -7.78,50.178 -8.222,87.694c230.407,160.381 492.642,140.685 790.862,142.561c-3.89,-112.079 -57.381,-48.771 -75.063,-112.548c282.659,-144.437 601.479,283.246 890.504,-35.172c-41.29,-90.038 -134.743,-72.687 -166.66,-108.796c-17.241,-16.414 -54.551,37.985 -58.176,-26.731c94.956,11.255 127.669,-74.563 208.037,-66.122c12.82,-32.826 17.152,-94.728 41.466,-88.162c-18.036,60.963 4.244,82.535 0.266,173.511c35.984,27.2 46.063,-34.233 66.487,-60.494c45.709,127.085 87.883,76.439 141.55,-5.628c288.848,280.902 657.8,33.296 982.278,134.589c-78.334,143.03 -194.776,-0.938 -266.126,184.298c14.412,75.032 82.579,-39.392 66.841,142.092c35.631,16.413 33.774,-95.666 66.487,-89.101c10.698,37.517 10.787,106.452 0.177,144.906c67.636,-70.342 193.007,-57.212 274.79,105.045c-24.932,0.938 -49.865,1.876 -74.975,2.814c173.026,69.405 440.213,236.82 641.267,206.339c18.125,147.719 35.277,4.22 100.261,82.066Zm-5985.18,-488.647c41.201,-15.476 84.789,18.758 50.042,113.486c33.863,10.317 42.528,-65.184 66.399,-89.101c-35.189,-0.469 -19.805,-65.184 -8.488,-115.362c-32.094,105.983 -103.002,-99.886 -107.953,90.977Zm4044.85,-187.581c-10.432,-6.096 -17.064,-44.55 -16.622,29.075c42.616,-5.158 83.198,-31.419 108.219,-4.22c-2.563,-122.865 -72.145,-101.763 -91.597,-24.855Zm-2296.28,725.937c-7.957,105.983 46.594,60.025 41.643,-1.407c-20.689,-2.345 -25.817,-52.992 -41.643,1.407Zm58.354,55.805c27.939,-19.696 77.362,34.233 91.508,-32.358c-44.384,-14.068 -62.951,-93.79 -91.508,32.358Zm-1238.24,1379.18c23.783,86.756 70.82,-21.572 75.063,83.942c24.756,0.938 42.173,-86.756 58.265,-30.951c-0.089,-38.454 -0.089,-76.908 -0.177,-115.831c-41.289,31.42 -98.051,9.848 -133.151,62.84Zm3897.37,1409.2c24.933,-29.543 60.475,-23.916 66.399,-118.175c-32.624,3.283 -73.118,-19.696 -66.399,118.175Zm183.371,195.084c115.203,-57.212 -49.866,-83.473 -66.575,2.814c27.673,-6.565 49.334,5.627 66.575,-2.814Zm-7546.74,1886.59c6.543,23.448 50.927,28.606 49.777,-59.557c-22.015,1.407 -48.981,-14.068 -49.777,59.557Zm2482.57,1580.37c10.609,-107.389 -49.512,-113.017 -58.354,-55.336c32.625,-28.606 21.22,99.418 58.354,55.336Zm133.151,-5.628c74.002,50.178 135.716,-0.938 224.748,20.165c-45.533,-40.799 -178.685,-130.837 -224.748,-20.165Zm432.875,12.662c-13.086,-2.344 -28.823,5.159 -25.021,-57.212c-50.396,61.433 -126.962,-4.22 -166.484,6.566c91.508,95.665 135.007,116.768 191.505,50.646Zm-873.795,149.596c-56.585,46.895 -136.423,-74.564 -158.084,35.172c97.609,77.377 313.339,108.328 424.475,-16.882c-87.972,-29.544 -141.816,-98.011 -224.748,-48.771c64.63,105.045 -57.823,-36.578 -58.265,-26.73c9.283,6.095 12.909,31.887 16.622,57.211Zm932.236,-36.579c19.451,-0.469 38.725,-1.407 58.176,-2.344c3.36,-116.301 -56.497,-45.488 -58.176,2.344Zm-640.824,53.929c-5.128,1.876 -9.814,5.159 -8.311,29.076c36.515,14.068 149.861,-23.917 58.176,-30.951c-17.329,-62.84 -26.878,26.73 -41.643,-27.2c-0.53,-17.82 -1.326,-34.233 -8.399,-29.075c0.088,19.697 0.088,38.924 0.177,58.15Zm-474.164,192.27c-8.399,58.151 -30.944,67.529 -41.466,117.238c181.16,45.02 490.344,5.627 699.089,-27.668c-184.785,-155.691 -438.975,9.379 -657.623,-89.57Zm5977.84,1153.62c85.497,183.36 209.63,250.889 316.522,219.47c-109.103,-25.793 -228.992,-309.508 -316.522,-219.47Zm-365.856,303.881c26.789,86.755 97.432,68.467 124.84,-4.69c-2.21,66.122 2.123,108.329 16.799,114.893c14.324,-59.556 -6.277,-56.274 8.135,-116.299c-46.064,-113.487 -94.869,-54.868 -149.774,6.096Zm-149.773,34.702c33.332,-10.786 46.24,49.709 83.286,25.793c-2.829,-147.72 -82.756,-85.819 -83.286,-25.793Zm724.463,232.13c27.143,24.386 51.81,19.228 99.907,24.854c-0.883,-133.181 -72.056,-49.708 -99.907,-24.854Zm-7414.3,1331.82c-20.601,49.709 -80.811,-52.054 -108.219,33.295c18.567,87.225 96.018,70.812 108.219,-33.295Zm3620.9,147.72c-30.503,22.51 -46.329,-69.405 -66.576,2.814c30.945,130.837 100.262,90.038 158.173,80.19c93.453,-15.476 181.69,-88.631 274.613,-39.392c-88.503,-158.505 -297.071,-70.342 -366.21,-43.612Zm499.361,8.911c36.604,35.171 122.542,2.813 174.794,-64.716c-61.094,34.702 -166.217,-108.328 -174.794,64.716Zm507.673,-77.846c-1.768,128.492 -81.341,-9.38 -83.021,119.113c41.643,45.957 71.35,6.097 108.218,-32.826c4.067,75.97 6.631,97.073 25.199,172.105c173.114,-254.172 341.012,151.002 507.583,-106.452c-183.458,-125.68 -374.963,14.537 -557.979,-151.94Zm-1531.33,175.856c-42.35,0.469 -96.105,-122.865 -116.353,62.84c149.774,46.426 298.574,24.385 449.232,-133.182c-108.131,-2.815 -228.197,68.935 -332.879,70.342Z" style="fill:#f65900;"/><path d="M20848.2,1020.92c-70.112,-130.369 -163.477,-179.139 -258.345,-221.814c6.366,-25.792 8.842,-65.653 8.133,-115.831c-53.225,-9.379 -75.505,87.225 -133.063,63.308c17.859,-60.494 3.448,-109.734 -25.109,-85.818c16.445,-74.563 68.079,-29.075 66.664,54.868c10.521,-7.972 8.399,-57.681 -0.089,-57.681c135.539,38.923 275.233,-80.66 391.319,42.205c-68.167,-249.482 -289.378,-244.323 -391.762,-389.229c6.454,-67.06 51.457,-30.013 41.731,56.274c10.963,-29.544 30.946,-29.075 33.156,-88.163c90.27,94.728 192.919,130.369 283.101,105.045c102.913,207.746 241.635,289.812 300.518,653.718c3.714,234.944 -8.133,360.154 0.796,549.611c-26.524,244.792 -55.788,480.675 -107.334,640.118c36.25,237.758 57.468,416.897 59.237,663.097c-10.875,47.364 -61.271,106.451 -24.756,145.843c-17.241,36.579 -35.012,71.75 -49.777,117.707c4.244,75.501 46.063,95.666 25.198,172.105c-28.823,24.386 -32.006,-41.737 -58.265,-26.73c6.367,169.76 67.46,240.572 83.906,459.572c20.247,269.647 -17.595,592.754 -15.384,926.178c-81.43,2.814 -52.517,428.153 -165.953,382.195c85.673,185.236 210.69,375.63 316.876,392.512c19.097,117.238 46.505,427.683 0.706,520.536c9.726,52.522 21.838,97.072 33.509,143.498c-17.418,71.75 -84.965,3.752 -58.088,146.782c-83.109,71.749 -190.62,-31.889 -249.327,211.966c0.972,74.094 31.122,45.488 41.731,85.349c2.652,73.625 -15.384,169.291 -7.957,231.662c46.683,60.026 23.519,109.265 66.753,113.017c-10.256,80.191 -26.082,141.154 -58.088,146.782c25.463,74.563 72.146,74.094 83.463,199.304c-94.868,137.871 -136.246,43.613 -241.282,67.529c150.569,146.313 285.223,348.9 408.649,591.347c1.592,126.148 3.182,252.765 -16.357,232.132c15.737,90.508 28.115,23.447 41.555,-30.482c9.106,249.013 13.793,401.422 59.06,547.265c-16.445,205.87 -74.444,124.742 -124.575,178.201c7.427,138.81 18.745,263.551 58.618,286.998c-26.082,263.55 -167.632,226.972 -215.906,326.389c19.097,172.574 71.172,29.544 116.528,-4.689c-11.405,117.706 18.213,90.508 16.887,173.042c-148.094,29.076 -161.355,265.896 -316.079,185.705c-4.068,753.136 -113.259,1147.52 -172.32,1713.08c-72.321,-70.342 -104.15,57.212 -141.286,179.139c-3.714,80.66 45.268,-24.854 41.643,55.806c-64.984,101.292 -156.404,85.348 -249.505,125.678c-86.911,37.985 -160.294,38.923 -216.437,-77.846c-428.453,286.998 -764.249,60.495 -1214.98,191.801c-7.427,-92.383 27.408,-40.33 24.756,-116.299c-138.545,-3.283 -381.33,213.372 -515.983,48.771c-26.79,27.199 -11.76,-93.791 -25.11,-114.894c-105.212,17.352 -199.904,203.525 -266.302,10.317c-149.685,-44.081 -315.638,193.208 -424.564,16.882c-437.383,39.86 -789.801,144.437 -1157.07,-70.343c-209.187,-53.46 -379.914,23.448 -591.047,-34.702c29.619,-138.34 99.289,-140.216 157.908,-179.608c-76.921,-47.833 -202.292,-57.212 -307.946,-16.882c-353.302,135.058 -721.458,90.977 -1082.01,13.6c-16.622,-66.592 2.034,-32.358 8.223,-87.226c-70.908,-92.852 -145.264,36.578 -208.038,66.123c-15.649,-54.398 -1.061,-72.688 -0.177,-144.906c-71.173,-37.047 -50.219,87.225 -91.42,119.113c-38.725,27.2 11.406,-75.032 -16.71,-86.287c-17.771,-12.661 -15.826,42.206 -16.533,87.695c-95.399,-39.861 -171.7,-65.654 -283.013,-17.821c-34.305,15.006 6.365,-72.687 -16.799,-114.893c-139.959,-10.317 -338.537,158.036 -490.962,76.907c-72.323,-37.984 -118.121,4.69 -199.815,8.442c-69.848,2.813 -138.191,-149.127 -216.615,-194.146c-64.453,-36.578 -160.471,82.066 -257.991,9.848c1.768,-41.737 24.756,-10.787 24.756,-58.619c-283.102,52.053 -630.568,59.088 -898.639,208.683c-323.418,-110.672 -697.586,169.76 -990.236,154.285c7.073,-43.612 20.866,-63.308 41.555,-59.557c-286.196,-115.831 -725.701,-135.996 -1090.41,-72.688c-34.569,16.414 -35.454,147.25 -83.02,118.645c-22.104,166.009 -89.033,177.732 -132.886,236.82c-7.692,10.317 -32.537,86.756 -41.555,88.163c-132.886,30.012 -93.277,-504.592 -167.544,-774.239c-39.256,84.88 -79.926,118.176 -116.53,4.689c2.741,-182.89 63.57,-166.008 82.844,-292.156c-10.698,-40.798 -46.771,-92.852 -49.865,1.876c-18.921,-58.15 -18.567,-150.533 -0.266,-202.586c-29.53,-14.538 -20.246,103.169 -49.777,88.631c-3.625,-60.495 5.571,-76.908 8.223,-116.3c-26.613,-15.944 -25.729,55.337 -41.731,1.876c-2.211,-180.546 2.033,-338.583 32.801,-406.111c-167.363,-184.295 -302.99,-653.714 -442.773,-1023.25c3.714,-179.139 45.976,-226.503 49.424,-406.581c101.941,-106.451 167.544,-159.443 290.97,-185.236c19.804,-57.212 -15.384,-161.319 8.045,-231.661c35.012,27.199 83.905,18.758 108.131,-120.052c-30.592,-41.267 -45.622,-8.441 -83.286,-54.398c5.481,-67.529 27.585,-78.783 33.067,-146.313c-52.872,-165.54 31.298,-423.462 -0.885,-607.291c14.147,-67.06 46.948,45.488 74.975,26.261c-43.764,-89.101 44.649,-51.585 58.088,-118.176c-3.536,-60.026 -69.493,65.184 -49.954,-55.805c-83.285,45.488 -58.795,-18.758 -124.84,5.158c10.079,-439.876 138.103,-610.105 273.553,-820.664c-19.009,-87.694 -50.485,-255.109 -33.863,-374.692c-11.317,-55.336 -46.594,49.709 -66.487,60.026c-0,-86.287 21.484,-98.949 24.667,-173.981c-19.716,-69.874 -15.472,43.613 -41.554,30.013c24.49,-170.229 69.67,-115.362 107.953,-206.338c-37.841,-109.735 -77.362,-4.69 -124.84,5.158c3.536,-45.957 26.082,-26.261 16.533,-116.3c-23.695,-4.22 -16.18,98.48 -49.865,59.557c-4.156,-90.508 25.463,-66.591 16.445,-173.981c-42.881,33.764 -95.222,61.432 -133.152,33.764c-0.176,-105.983 29,-111.61 41.378,-174.919c-27.585,-46.895 -46.948,30.013 -83.109,31.889c-3.448,-127.086 -3.625,-260.737 57.823,-291.219c-2.741,-67.06 1.237,-111.141 8.134,-145.375c-34.924,-81.129 -50.219,-31.42 -124.929,-52.991c-13.262,-129.431 34.481,-226.504 24.491,-318.887c-22.9,-211.027 -69.317,-171.166 -133.682,-168.352c26.701,-116.769 14.234,-191.801 41.201,-290.75c-41.555,-86.756 -10.875,-193.677 -8.842,-375.629c14.942,-4.221 17.595,34.702 33.332,27.668c18.921,-309.508 164.539,-185.705 182.398,-498.495c-38.46,-57.681 -14.677,-335.3 -50.484,-403.298c46.417,-378.444 4.597,-1058.89 156.581,-1076.24c-8.842,-124.272 -35.985,-182.891 -83.463,-170.229c7.604,-132.713 -17.771,-150.533 -50.042,-143.03c13.262,-147.251 18.302,-157.568 -16.976,-230.255c37.753,-254.64 27.939,-511.157 65.338,-870.373c343.93,100.824 821.012,95.666 1124.01,187.111c8.045,-0.938 6.366,-35.64 8.222,-58.15c65.957,159.913 167.898,66.591 232.971,-37.985c-4.332,23.448 -8.576,47.364 -8.134,87.225c36.338,18.758 46.771,-50.646 83.109,-31.888c71.615,60.963 336.857,-120.521 507.496,-135.527c187.26,-16.882 382.213,-151.94 474.075,-279.026c29.796,247.606 125.017,151.94 224.925,135.527c25.286,-11.724 14.234,105.045 33.42,114.424c51.015,-128.962 199.285,69.405 257.903,-96.604c4.951,-75.501 -3.448,-104.107 -25.021,-86.287c58.972,-102.231 132.975,10.317 199.639,-65.653c-5.482,-29.075 -19.186,-29.075 -16.711,-86.287c113.789,32.357 234.651,127.554 308.3,277.15c40.493,-59.557 65.514,30.013 99.996,53.929c98.935,68.467 248.354,-64.715 366.121,-72.218c362.939,-23.917 719.513,134.589 1057.16,16.413c5.482,29.075 19.186,29.075 16.71,86.287c263.562,-22.51 473.545,-126.617 732.244,-115.362c2.476,-76.439 -17.417,-74.094 -33.42,-85.818c66.222,-30.951 128.554,76.908 183.282,137.403c57.646,-202.587 102.383,27.668 183.105,22.04c4.774,63.778 -15.738,41.737 -16.533,87.694c270.812,99.418 512.889,-350.775 790.509,-118.175c10.698,-49.709 27.319,-79.253 49.865,-88.163c-7.78,184.767 -84.877,131.775 -124.575,206.807c127.582,4.69 281.51,-90.038 432.875,69.874c52.606,-271.054 203.352,-106.452 324.302,-186.174c2.387,46.895 -7.78,50.178 -8.223,87.225c39.256,-2.813 63.216,48.771 99.996,53.93c0.53,-98.48 -30.945,-84.412 -58.353,-84.412c66.398,-143.499 159.587,103.17 191.151,-181.484c45.091,33.765 75.328,33.765 99.819,-61.901c2.387,46.895 -7.78,50.178 -8.223,87.694c230.407,160.381 492.642,140.685 790.862,142.561c-3.89,-112.079 -57.381,-48.771 -75.063,-112.548c282.659,-144.437 601.48,283.246 890.504,-35.172c-41.289,-90.038 -134.743,-72.687 -166.66,-108.796c-17.241,-16.414 -54.551,37.985 -58.176,-26.731c94.956,11.255 127.67,-74.563 208.038,-66.122c12.819,-32.826 17.152,-94.728 41.466,-88.162c-18.037,60.963 4.243,82.535 0.265,173.511c35.984,27.2 46.064,-34.233 66.487,-60.494c45.71,127.085 87.884,76.439 141.55,-5.628c288.848,280.902 657.8,33.296 982.279,134.589c-78.335,143.03 -194.776,-0.938 -266.126,184.298c14.411,75.032 82.578,-39.392 66.84,142.092c35.631,16.413 33.775,-95.666 66.488,-89.101c10.698,37.517 10.786,106.452 0.176,144.906c67.637,-70.342 193.008,-57.212 274.791,105.045c-24.933,0.938 -49.866,1.876 -74.975,2.814c173.026,69.405 440.213,236.82 641.266,206.339c18.125,147.719 35.278,4.22 100.262,82.066Zm-5985.18,-488.647c41.201,-15.476 84.789,18.758 50.043,113.486c33.862,10.317 42.527,-65.184 66.398,-89.101c-35.189,-0.469 -19.804,-65.184 -8.487,-115.362c-32.095,105.983 -103.003,-99.886 -107.954,90.977Zm4044.85,-187.581c-10.433,-6.096 -17.064,-44.55 -16.622,29.075c42.615,-5.158 83.197,-31.419 108.218,-4.22c-2.563,-122.865 -72.145,-101.763 -91.596,-24.855Zm-2296.28,725.937c-7.957,105.983 46.594,60.025 41.643,-1.407c-20.689,-2.345 -25.817,-52.992 -41.643,1.407Zm58.353,55.805c27.939,-19.696 77.362,34.233 91.509,-32.358c-44.385,-14.068 -62.951,-93.79 -91.509,32.358Zm-1238.24,1379.18c23.783,86.756 70.82,-21.572 75.064,83.942c24.755,0.938 42.173,-86.756 58.264,-30.951c-0.088,-38.454 -0.088,-76.908 -0.177,-115.831c-41.289,31.42 -98.05,9.848 -133.151,62.84Zm3897.37,1409.2c24.932,-29.543 60.474,-23.916 66.398,-118.175c-32.624,3.283 -73.118,-19.696 -66.398,118.175Zm183.37,195.084c115.204,-57.212 -49.865,-83.473 -66.575,2.814c27.673,-6.565 49.335,5.627 66.575,-2.814Zm-7546.74,1886.59c6.542,23.448 50.926,28.606 49.777,-59.557c-22.015,1.407 -48.982,-14.068 -49.777,59.557Zm2482.57,1580.37c10.609,-107.389 -49.512,-113.017 -58.353,-55.336c32.624,-28.606 21.219,99.418 58.353,55.336Zm133.151,-5.628c74.003,50.178 135.716,-0.938 224.748,20.165c-45.533,-40.799 -178.684,-130.837 -224.748,-20.165Zm432.875,12.662c-13.086,-2.344 -28.823,5.159 -25.021,-57.212c-50.396,61.433 -126.962,-4.22 -166.484,6.566c91.508,95.665 135.008,116.768 191.505,50.646Zm-873.795,149.596c-56.585,46.895 -136.422,-74.564 -158.084,35.172c97.609,77.377 313.339,108.328 424.475,-16.882c-87.971,-29.544 -141.816,-98.011 -224.748,-48.771c64.631,105.045 -57.822,-36.578 -58.265,-26.73c9.284,6.095 12.909,31.887 16.622,57.211Zm932.236,-36.579c19.451,-0.469 38.726,-1.407 58.176,-2.344c3.36,-116.301 -56.496,-45.488 -58.176,2.344Zm-640.824,53.929c-5.128,1.876 -9.814,5.159 -8.311,29.076c36.515,14.068 149.862,-23.917 58.177,-30.951c-17.33,-62.84 -26.878,26.73 -41.643,-27.2c-0.531,-17.82 -1.327,-34.233 -8.4,-29.075c0.089,19.697 0.089,38.924 0.177,58.15Zm-474.163,192.27c-8.4,58.151 -30.945,67.529 -41.467,117.238c181.16,45.02 490.344,5.627 699.089,-27.668c-184.785,-155.691 -438.975,9.379 -657.622,-89.57Zm5977.84,1153.62c85.496,183.36 209.629,250.889 316.522,219.47c-109.103,-25.793 -228.993,-309.508 -316.522,-219.47Zm-365.857,303.881c26.79,86.755 97.432,68.467 124.841,-4.69c-2.211,66.122 2.122,108.329 16.799,114.893c14.323,-59.556 -6.278,-56.274 8.134,-116.299c-46.064,-113.487 -94.869,-54.868 -149.774,6.096Zm-149.773,34.702c33.332,-10.786 46.241,49.709 83.286,25.793c-2.829,-147.72 -82.755,-85.819 -83.286,-25.793Zm724.463,232.13c27.143,24.386 51.811,19.228 99.908,24.854c-0.884,-133.181 -72.057,-49.708 -99.908,-24.854Zm-7414.3,1331.82c-20.601,49.709 -80.81,-52.054 -108.218,33.295c18.566,87.225 96.017,70.812 108.218,-33.295Zm3620.9,147.72c-30.503,22.51 -46.329,-69.405 -66.576,2.814c30.945,130.837 100.262,90.038 158.173,80.19c93.453,-15.476 181.691,-88.631 274.614,-39.392c-88.503,-158.505 -297.072,-70.342 -366.211,-43.612Zm499.362,8.911c36.603,35.171 122.542,2.813 174.794,-64.716c-61.094,34.702 -166.218,-108.328 -174.794,64.716Zm507.672,-77.846c-1.768,128.492 -81.341,-9.38 -83.021,119.113c41.643,45.957 71.35,6.097 108.219,-32.826c4.066,75.97 6.63,97.073 25.198,172.105c173.114,-254.172 341.012,151.002 507.584,-106.452c-183.459,-125.68 -374.963,14.537 -557.98,-151.94Zm-1531.33,175.856c-42.35,0.469 -96.106,-122.865 -116.353,62.84c149.773,46.426 298.573,24.385 449.231,-133.182c-108.13,-2.815 -228.197,68.935 -332.878,70.342Z" style="fill:#f65900;"/></g></svg>