<?xml version="1.0" encoding="UTF-8" standalone="no"?><!DOCTYPE svg PUBLIC "-//W3C//DTD SVG 1.1//EN" "http://www.w3.org/Graphics/SVG/1.1/DTD/svg11.dtd"><svg width="100%" height="100%" viewBox="0 0 21334 5706" version="1.1" xmlns="http://www.w3.org/2000/svg" xmlns:xlink="http://www.w3.org/1999/xlink" xml:space="preserve" xmlns:serif="http://www.serif.com/" style="fill-rule:evenodd;clip-rule:evenodd;stroke-linejoin:round;stroke-miterlimit:2;"><g id="Sil"><path d="M-620.363,5499.73c0,0 388.83,-33.188 583.245,0c194.415,33.189 -23.709,-146.979 403.055,-146.979c426.764,4.741 450.474,-308.182 881.98,-388.784c-0,0 132.771,61.637 284.509,18.965c151.739,-42.671 203.899,-56.895 346.154,-23.706c146.996,33.189 265.542,-90.084 635.404,56.895c369.863,146.979 284.51,-47.412 497.892,146.979c213.382,199.134 312.961,61.637 507.375,56.896c194.415,-4.742 218.124,94.825 341.412,-0c123.287,-94.826 312.96,-132.756 417.281,-213.357c104.32,-80.602 227.608,-66.378 303.477,-146.98c75.869,-80.601 265.542,123.273 445.731,94.826c180.19,-28.448 232.35,52.154 260.801,123.273c-0,-0 123.287,-33.189 203.898,33.189c0,-0 293.993,-260.77 469.441,-312.924c-0,0 142.255,-308.182 507.375,-279.735c365.121,28.448 350.895,-42.671 559.536,42.672c208.64,85.343 237.091,-128.014 564.277,-47.413c327.186,80.602 1247.1,165.944 1768.7,-350.854c303.477,-298.699 587.987,384.043 1024.24,260.77c0,-0 374.604,-0 478.925,-80.602c-0,0 175.447,194.392 175.447,512.057c0,0 128.029,-18.965 203.899,90.084c75.869,109.049 260.801,132.756 346.153,-99.566c85.353,-232.322 317.703,-270.253 317.703,-270.253c0,0 199.157,90.085 227.607,218.099c0,-0 203.899,-23.707 341.412,132.755c0,0 336.671,-71.119 516.86,137.497c180.188,208.615 587.986,-9.483 881.979,-9.483c293.994,0 222.867,99.567 521.601,14.224c298.735,-90.084 170.706,-175.427 526.343,-132.755c355.637,42.671 583.245,123.272 692.307,33.188c0,0 4.742,156.462 455.216,142.238c450.473,-14.223 422.022,-75.86 734.983,-94.825c312.961,-14.224 151.739,-137.497 369.862,-118.532c218.124,18.966 52.16,180.169 488.408,170.686c436.248,-14.224 592.728,156.462 905.689,151.721c312.961,-4.742 635.404,47.412 844.044,199.133c208.64,146.979 1033.72,47.412 1232.88,-23.707c0,0 137.513,-113.79 284.51,-90.084c-0,0 -4.743,-123.273 165.964,-170.685c170.706,-47.413 52.16,-90.084 213.382,-146.98c161.221,-56.895 341.412,303.442 668.598,260.77c327.185,-42.671 478.924,203.875 478.924,203.875l0,11540.2l-23078.5,0l0,-11492.8Z" style="fill-rule:nonzero;"/><g><path d="M6029.84,839.581l-731.258,140.468c-112.077,-274.702 -379.888,-456.011 -673.53,-463.084l-98.791,-514.239l-310.478,59.64l98.791,514.239c-270.121,115.366 -451.686,382.996 -453.996,679.671l-735.343,141.252l59.588,310.176l735.343,-141.252c114.594,265.755 376.752,439.686 666.309,447.543l548.837,2856.89l310.478,-59.64l-548.837,-2856.89c266.035,-114.581 445.084,-373.263 453.047,-662.56l735.343,-141.253l-59.588,-310.176l4.085,-0.785Zm-1025.39,196.969l-269.626,51.792l-53.315,-277.526c136.051,24.649 252.914,103.765 322.941,225.734Zm-637.505,-165.309l53.316,277.526l-269.626,51.792c19.848,-139.232 99.077,-256.016 216.31,-329.318Zm-152.637,638.71l265.541,-51.008l50.179,261.201c-131.182,-21.352 -243.175,-97.172 -315.72,-210.193Zm630.284,149.768l-50.18,-261.201l265.541,-51.008c-25.502,131.855 -105.514,244.558 -215.361,312.209Z" style="fill-rule:nonzero;"/><path d="M5967.01,4613.79l-1384.9,266.026l-83.11,-432.614l1384.9,-266.026l83.11,432.614Z"/><path d="M6421.09,4970.91l-2132.49,409.632l-83.109,-432.614l2132.49,-409.632l83.11,432.614Z"/></g><g><path d="M20416.4,2785.01l-478.641,91.943c-73.184,-178.888 -248.34,-296.843 -440.504,-301.276l-64.346,-334.943l-203.222,39.037l64.346,334.943c-176.844,75.316 -295.826,249.772 -297.513,443.042l-481.316,92.456l38.812,202.029l481.315,-92.456c74.836,173.058 246.297,286.21 435.788,291.157l357.477,1860.79l203.222,-39.038l-357.477,-1860.79c174.17,-74.803 291.498,-243.428 296.882,-431.896l481.315,-92.456l-38.812,-202.029l2.674,-0.514Zm-671.168,128.925l-176.482,33.901l-34.726,-180.763c89.021,15.976 165.453,67.448 211.208,146.862Zm-417.104,-107.311l34.726,180.763l-176.482,33.9c13.072,-90.715 64.991,-166.841 141.756,-214.663Zm-100.27,416.179l173.808,-33.387l32.684,170.13c-85.837,-13.832 -159.084,-63.159 -206.492,-136.743Zm412.388,97.192l-32.684,-170.13l173.808,-33.387c-16.767,85.912 -69.197,159.38 -141.124,203.517Z" style="fill-rule:nonzero;"/><path d="M20373,5243.76l-906.477,174.126l-54.133,-281.778l906.478,-174.125l54.132,281.777Z"/><path d="M20670,5476.14l-1395.81,268.123l-54.133,-281.777l1395.82,-268.123l54.132,281.777Z"/></g><path d="M2670.85,5788.4l-1967.69,-295.36l312.865,-2084.1c81.521,-543.039 584.696,-912.731 1130.73,-830.769c541.114,81.224 918.48,583.09 836.959,1126.13l-312.865,2084.1Z" style="fill-rule:nonzero;"/><path d="M19308,1425.44l-1435.97,-115.544l97.28,-1208.87l-343.877,-27.67l-97.28,1208.87l-1435.97,-115.544l-28.144,349.735l1435.97,115.544l-305.911,3801.46l343.877,27.67l305.912,-3801.46l1435.97,115.544l28.144,-349.734Z" style="fill-rule:nonzero;"/></g></svg>