<?xml version="1.0" encoding="UTF-8" standalone="no"?><!DOCTYPE svg PUBLIC "-//W3C//DTD SVG 1.1//EN" "http://www.w3.org/Graphics/SVG/1.1/DTD/svg11.dtd"><svg width="100%" height="100%" viewBox="0 0 21334 12612" version="1.1" xmlns="http://www.w3.org/2000/svg" xmlns:xlink="http://www.w3.org/1999/xlink" xml:space="preserve" xmlns:serif="http://www.serif.com/" style="fill-rule:evenodd;clip-rule:evenodd;stroke-linejoin:round;stroke-miterlimit:2;"><g id="Trees"><g><path d="M-1012.01,10154.8c0,0 466.487,-419.045 432.991,-1927.55c-0,-0 -136.612,-487.899 199.583,-973.058l37.315,220.855c-0,-0 499.243,-786.265 206.68,-1363.82c-292.563,-577.559 -1289.34,-2856.43 -1315.4,-3731.02c-26.057,-874.585 -508.676,-1501.39 -508.676,-1501.39l105.067,-89.31c-0,-0 304.478,354.669 403.112,638.919c-0,0 3.652,-318.658 243.144,-517.992c239.493,-199.334 219.294,-433.433 219.294,-433.433l112.003,40.871c0,-0 -131.624,416.343 -324.233,536.666c-192.609,120.323 -235.243,933.21 -4.026,1534.2c231.218,600.989 234.597,1598.62 591.065,1535.13c0,-0 66.271,-202.852 -49.25,-359.186l73.998,-75.954c0,0 186.994,163.13 74.857,556.382c0,-0 58.002,149.426 41.497,319.112c-0,0 499.776,1336.01 617.16,1426.8c-0,-0 22.864,-730.818 -317.856,-1368.6c-235.479,-438.774 -229.737,-708.303 -229.737,-708.303c0,-0 415.765,586.395 486.647,797.969c0,0 383.655,-1578.22 150.139,-1981.79c-0,-0 -262.929,-209.206 -318.686,-382.404c-52.466,-172.406 487.08,-1039.27 487.08,-1039.27l61.855,32.265c0,-0 -513.833,716.759 -385.585,1008.14c128.248,291.383 369.678,214.078 379.06,521.983c0,-0 713.612,-1040.28 220.826,-2419.75l127.564,-52.632c-0,-0 338.12,532.961 146.699,1501.04c-0,0 573.825,-618.951 1049.59,-830.84c475.769,-211.888 230.116,-955.284 230.116,-955.284l75.171,-37.466c0,0 44.787,319.906 117.84,320.135c81.344,9.173 463.452,-391.99 463.452,-391.99l62.773,42.906c0,-0 -531.659,472.812 -701.75,991.033c-0,0 244.566,-3.611 320.936,-89.413l-61.654,169.231c0,0 -557.159,-71.681 -895.191,392.197c0,0 -589.024,393.004 -691.162,802.556c-0,0 338.568,-495.008 728.503,-668.525l22.343,109.578c0,0 -1316.05,954.216 -1096.62,1792.02c-0,0 -279.527,1117.05 -240.328,1633.58c39.198,516.534 113.478,381.602 110.844,811.649c0,0 200.899,-111.379 517.962,-444.852c317.063,-333.472 150.141,-276.427 443.098,-553.188c295.458,-272.685 790.747,-1042.54 1267.82,-1202.01c480.36,-158.684 875.248,-598.448 930.072,-1245.16c54.825,-646.709 604.719,-920.628 604.719,-920.628l59.075,87.167c-0,0 -415.087,205.665 -504.625,736.343c-89.539,530.677 -339.01,1074.93 -772.565,1415.08c-0,-0 -534.307,93.592 -1058.39,766.202c0,-0 -347.059,284.569 -334.64,565.419c-0,-0 -253.493,-74.95 -490.465,489.68c-236.972,564.631 -767.607,700.787 -581.15,895.046c0,0 -48.492,172.402 1505.69,-859.911c600.477,-397.192 681.151,77.234 1811.66,-1508.65c0,0 1073.9,-686.056 1111.89,-1378.5c37.99,-692.442 261.164,-1329.86 261.164,-1329.86l112.13,54.794c0,-0 -290.034,1045.05 -277.85,1659.27c0,-0 151.287,-151.115 327.799,-146.806c0,0 -326.653,272.118 -389.915,534.739l72.645,45.283c-0,0 -64.589,297.034 -797.705,551.135c0,-0 -550.685,277.202 -810.898,1082.83c0,-0 -679.502,551.819 -1250.54,667.823c-0,-0 -1108.44,858.345 -1751.57,1259.16c-0,0 -73.744,103.801 -1.508,194.139c-0,-0 -469.851,230.679 -417.142,1327.02c52.709,1096.35 -312.967,1140.25 -10.915,1678.42l-1036.5,-249.654l1.582,-6.567Z" style="fill-rule:nonzero;"/><path d="M404.264,1312.7c-0,0 -271.814,434.676 -410.911,751.969c-21.096,116.482 -25.076,219.72 -4.033,276.887c80.626,200.028 159.342,191.202 269.992,353.31c110.649,162.107 84.5,444.087 84.5,444.087c89.66,-68.708 134.325,-210.772 157.003,-333.82c-25.023,46.072 -41.221,69.956 -41.221,69.956c-6.092,-307.112 -250.021,-233.882 -379.06,-521.982c-128.248,-291.383 385.585,-1008.14 385.585,-1008.14l-61.855,-32.265Z" style="fill:#5ad0ff;fill-rule:nonzero;"/><path d="M-67.182,6304.8c91.617,414.543 -115.969,871.634 -219.226,1069.05c116.365,-20.597 432.43,-104.238 491.611,-364.369c68.67,-299.524 54.904,-907.182 -62.836,-1126.57c1.428,66.335 -0.69,104.031 -0.69,104.031c-9.08,-5.66 -19.87,-18.679 -29.078,-38.263c-3.726,131.086 -10.769,348.203 -42.782,437.742c-18.315,61.58 -73.844,3.053 -136.999,-81.623Z" style="fill:#5ad0ff;fill-rule:nonzero;"/><path d="M882.036,5717.23c120.501,-196.736 232.912,-200.919 232.912,-200.919c0,-0 144.988,-211.678 150.831,-380.458c-99.022,122.025 -60.199,148.742 -299.183,403.77c-130.881,138.664 -241.61,237.03 -327.98,306.531c80.426,-1.468 181.13,-29.311 243.42,-128.924Z" style="fill:#5ad0ff;fill-rule:nonzero;"/><path d="M4574.2,3584.82c-324.18,363.018 -732.176,625.963 -732.176,625.963c-173.429,243.032 -321.043,436.711 -450.088,596.656c40.149,-7.695 89.251,-23.654 151.26,-64.29c164.831,-106.174 158.176,-295.332 341.832,-407.391c155.878,-97.911 640.091,-373.758 689.172,-750.938Z" style="fill:#5ad0ff;fill-rule:nonzero;"/><path d="M2029.57,5722.71c-836.271,552.264 -1207,761.667 -1373.79,832.636c85.679,34.53 235.459,77.553 362.104,14.279c186.283,-94.06 1064.06,-775.258 2005.85,-1187.49c0,-0 132.564,-44.482 209.805,-394.04c-584.233,647.704 -735.669,423.674 -1203.96,734.614Z" style="fill:#5ad0ff;fill-rule:nonzero;"/></g><g><path d="M21851.7,12601c-0,-0 297.318,-651.151 -423.642,-2216.27c-0,0 -364.723,-449.009 -233.729,-1110.17l139.449,214.405c-0,0 164.598,-1050.76 -403.992,-1522.78c-568.59,-472.018 -2647.26,-2406.12 -3072.19,-3310.52c-424.932,-904.39 -1214.68,-1341.57 -1214.68,-1341.57l69.27,-141.346c0,0 479.701,233.093 712.105,486.025c-0,0 -141.077,-335.496 18.75,-653.24c159.827,-317.744 32.257,-553.807 32.257,-553.807l135.719,-8.119c-0,0 51.659,496.034 -95.063,709.681c-146.723,213.648 178.316,1084.64 693.403,1609.1c515.086,524.462 972.251,1568.08 1316.18,1339.45c0,0 -22.93,-242.652 -214.831,-353.896l42.852,-113.224c-0,0 269.737,85.859 331.278,548.839c-0,-0 128.605,130.165 188.501,315.44c-0,-0 1130.17,1172.36 1294.22,1214.09c0,-0 -308.396,-776.025 -954.734,-1289.24c-445.784,-352.582 -562.335,-637.56 -562.335,-637.56c0,-0 701.454,425.245 871.789,614.661c-0,-0 -316.395,-1827.86 -744.117,-2144.46c0,-0 -370.103,-99.597 -507.17,-255.688c-133.265,-156.757 36.835,-1310.28 36.835,-1310.28l79.361,5.671c-0,-0 -211.461,984.577 55.157,1231.51c266.618,246.937 483.959,56.154 633.779,374.457c-0,0 273.288,-1414.36 -869.338,-2635.43l109.477,-113.152c-0,0 595.955,404.577 835.955,1505.82c-0,0 318.676,-909.393 719.897,-1347.74c401.221,-438.349 -193.715,-1105.43 -193.715,-1105.43l61.579,-73.437c0,0 192.303,314.775 268.808,281.792c89.241,-27.383 306.445,-621.427 306.445,-621.427l85.16,16.401c-0,0 -341.029,737.118 -283.274,1357.38c-0,0 254.13,-115.006 294.985,-239.626l12.472,205.33c-0,0 -615.283,178.288 -757.874,817.989c-0,0 -437.312,679.596 -357.903,1155.11c0,0 128.997,-672.558 457.9,-1031.67l73.193,104.636c0,0 -942.459,1598.17 -332.019,2376.09c0,0 215.595,1297.37 491.461,1820.68c275.866,523.31 292.195,348.171 484.987,799.899c0,-0 159.459,-208.049 339.417,-701.597c179.958,-493.548 31.327,-357.874 211.862,-781.047c185.003,-420.04 352.93,-1451.81 779.343,-1835.84c430.214,-384.699 643.232,-1024.99 406.505,-1727.44c-236.728,-702.444 213.81,-1239.49 213.81,-1239.49l101.417,64.453c-0,0 -340.588,404.233 -192.926,1000.91c147.662,596.674 134.237,1280.3 -164.517,1833.82c0,0 -516.232,341.04 -758.491,1284.03c0,-0 -233.565,455.957 -92.873,744.536c0,-0 -299.188,36.763 -290.276,736.056c8.911,699.293 -484.126,1083.25 -200.794,1201.97c0,-0 27.679,202.666 1183.68,-1585.62c447.386,-689.193 747.481,-228.859 1208.68,-2404.41c0,0 811.152,-1207.12 536.023,-1949.82c-275.129,-742.7 -331.568,-1511.97 -331.568,-1511.97l142.183,6.409c0,0 171.869,1226.73 463.904,1864.66c-0,-0 89.506,-227.115 276.065,-302.873c0,-0 -217.886,433.632 -164.631,737.532l96.564,14.403c-0,0 67.515,340.556 -583.65,940.162c0,-0 -449.871,540.843 -355.68,1503.19c-0,-0 -459.72,887.123 -1004.18,1268.35c0,0 -768.933,1403.32 -1259.28,2115.7c0,0 -29.923,142.282 86.7,204.071c-0,-0 -386.488,455.344 167.153,1579.94c553.641,1124.59 191.173,1336.89 751.775,1763.32l-1197.51,209.829l-1.332,-7.599Z" style="fill-rule:nonzero;"/><path d="M19312.3,2693.66c-0,0 -86.618,578.994 -87.813,974.658c30.903,131.624 73.683,241.589 121.685,291.909c175.275,172.889 253.585,127.844 443.016,247.352c189.431,119.508 290.302,426.81 290.302,426.81c62.526,-112.755 44.64,-281.899 12.406,-421.12c-5.221,59.646 -11.3,92.034 -11.3,92.034c-146.018,-318.969 -367.826,-131.319 -633.778,-374.457c-266.618,-246.937 -55.158,-1231.51 -55.158,-1231.51l-79.36,-5.672Z" style="fill:#5ad0ff;fill-rule:nonzero;"/><path d="M17481.7,3315.89c-30.99,-65.047 -63.785,-118.031 -93.252,-152.022c-42.274,183.6 -8.516,353.878 18.199,439.25c58.075,40.725 109.686,66.92 144.566,64.724c-43.639,-137.224 -68.742,-258.117 -69.513,-351.952Z" style="fill:#5ad0ff;fill-rule:nonzero;"/><path d="M21089.2,8137.93c284.312,392.622 275.057,965.89 256.836,1219.67c112.331,-74.498 404.846,-305.861 348.455,-605.296c-64.379,-345.02 -355.083,-975.36 -577.974,-1151.65c31.656,68.845 46.581,109.299 46.581,109.299c-12.07,-1.8 -29.273,-10.531 -47.808,-26.861c55.709,139.024 147.068,369.686 154.302,478.048c8.847,72.842 -75.839,36.781 -180.392,-23.207Z" style="fill:#5ad0ff;fill-rule:nonzero;"/></g></g></svg>