<?xml version="1.0" encoding="UTF-8" standalone="no"?><!DOCTYPE svg PUBLIC "-//W3C//DTD SVG 1.1//EN" "http://www.w3.org/Graphics/SVG/1.1/DTD/svg11.dtd"><svg width="100%" height="100%" viewBox="0 0 21334 6495" version="1.1" xmlns="http://www.w3.org/2000/svg" xmlns:xlink="http://www.w3.org/1999/xlink" xml:space="preserve" xmlns:serif="http://www.serif.com/" style="fill-rule:evenodd;clip-rule:evenodd;stroke-linejoin:round;stroke-miterlimit:2;"><g id="Webs"><path d="M4298.43,7482.3c-398.35,155.087 -718.795,518.184 -952.984,1079.27l-635.09,-1388.08c338.098,-919.46 1160.18,-1002.95 1864.99,-663.674c365.38,443.519 661.599,804.793 851.83,1039.63c-404.207,-174.352 -793.044,-197.844 -1128.74,-67.143Zm-2325.32,344.19c-474.037,-104.239 -985.341,3.59 -1318.59,311.077c-52.242,-439.58 -114.446,-937.181 -178.076,-1441.25c593.836,-340.329 1343.38,-268.765 2198.1,489l619.028,1352.99c-452.694,-384.245 -896.6,-623.596 -1320.47,-711.819Zm-2006.56,-174.442c-522.806,-275.39 -1088.8,-329.178 -1628.4,-97.364l231.418,-1207.63c803.217,-338.166 1535.53,-27.039 1870.38,358.941c71.987,570.151 133.004,1062.04 175.947,1423.1c-88.402,-88.709 -322.048,-305.606 -649.34,-477.052Zm-153.482,-5796.58c-85.547,-114.965 -227.23,-192.342 -366.91,-82.751l211.175,-1101.99c47.647,361.409 100.266,761.559 155.735,1184.74Zm805.124,-121.601c-87.703,-31.504 -233.584,-51.456 -356.172,88.487l-525.757,-1149.04c269.145,323.463 567.067,681.749 881.929,1060.55Zm2230.55,2687.55c-499.028,-313.381 -950.709,-243.391 -1286.31,243.177l-520.664,-1137.92c344.341,-670.781 891.332,-199.862 1128.27,76.166c228.161,275.01 455.605,549.332 678.7,818.58Zm-741.619,1433.64c224.757,-288.817 593.363,-458.27 1013.44,-465.134c303.825,-4.963 590.712,82.659 697.625,213.085c3.669,4.462 8.931,6.707 14.252,6.807c246.157,297.717 477.49,577.905 687.45,832.673c-715.487,-308.887 -1494.19,-184.545 -1831.18,683.749l-581.58,-1271.18Zm-1779.2,-324.6c298.942,-117.929 1046.77,-317.599 1741.89,333.142l566.246,1237.64c-618.993,-556.519 -1483.71,-853.188 -2164.85,-446.386c-42.553,-336.623 -90.366,-711.921 -143.289,-1124.4Zm-362.401,-3749.18c-54.99,20.22 -90.772,58.546 -112.603,90.971c-73.921,-564.29 -130.784,-996.674 -157.265,-1197.71l521.224,1139.26c-95.764,-47.693 -180.176,-58.69 -251.356,-32.512Zm610.196,816.793c-224.926,-183.016 -478.99,-222.067 -631.664,-29.269c-29.177,-223.333 -56.942,-435.541 -82.75,-632.638c61.414,-146.339 209.076,-171.987 381.628,-65.481l332.786,727.388Zm-624.433,26.004c143.76,-226.113 413.972,-172.335 660.195,52.188l323.242,706.499c-307.168,-292.225 -669.811,-169.473 -879.764,36.707c-35.77,-274.929 -70.602,-541.999 -103.673,-795.394Zm720.445,1675.34c-164.227,13.414 -326.132,68.171 -481.471,162.646c-43.482,-336.092 -86.941,-671.023 -129.158,-995.484c220.061,-225.722 597.728,-358.795 919.414,16.255l519.907,1136.35c-256.461,-236.226 -534.839,-343.797 -828.692,-319.763Zm-456.569,355.101c-6.561,-50.572 -13.1,-101.174 -19.639,-151.777c218.357,-135.393 771.319,-380.175 1348.06,210.692l487.013,1064.48c-484.988,-427.556 -1122.29,-518.645 -1707.59,-285.825c-33.908,-264.271 -69.865,-543.533 -107.842,-837.572Zm1932.68,-374.291c236.176,-45.054 501.117,41.475 782.096,239.177c275.271,332.224 543.193,655.851 796.87,962.629c-489.273,-268.568 -1309.96,-107.343 -1637.24,334.698l-508.894,-1112.24c163.064,-242.365 353.85,-385.136 567.172,-424.26Zm-195.975,-940.363c-323.921,-262.457 -695.133,-295.671 -925.317,138.835c-4.748,-5.617 -9.512,-11.149 -14.291,-16.599l-363.545,-794.531c159.331,-214.016 449.708,-209.41 640.987,-125.358c218.065,262.559 439.935,529.778 662.166,797.653Zm-709.98,-855.259c-211.554,-70.348 -464.379,-36.164 -610.597,144.835l-351.918,-769.104c167.677,-208.421 385.473,-64.886 395.83,-57.855c184.178,221.655 373.865,449.934 566.685,682.124Zm-1807.1,-652.494c175.241,-176.468 330.608,2.195 389.37,107.81c25.931,198.001 52.463,400.793 79.401,606.752c-129.658,-172.228 -356.262,-304.136 -580.776,-130.001l112.005,-584.561Zm-123.012,641.898c265.432,-240.648 508.397,1.634 602.262,153.079c32.049,245.331 64.566,494.875 97.271,745.991c-187.566,-287.241 -509.308,-432.743 -843.869,-145.974l144.336,-753.096Zm-155.744,812.652c396.277,-370.492 724.271,-87.551 867.394,179.605c41.404,318.318 82.971,638.617 123.981,955.634c-268.767,-341.891 -721.448,-501.632 -1161.79,-245.895l170.414,-889.344Zm-179.673,937.677c515.741,-314.227 980.138,-27.982 1180.5,275.381c43.162,320.086 82.34,637.565 122.347,944.865c-332.64,-345.056 -901.294,-585.834 -1494.5,-220.121l191.661,-1000.12Zm-201.429,1051.07c419.329,-278.12 804.718,-208.345 1054.67,-100.322c273.637,118.248 451.159,311.022 456.828,344.961c57.19,391.012 98.928,772.97 145.444,1121.94c-462.512,-474.682 -1188.78,-610.098 -1853.95,-338.433l197.009,-1028.15Zm6920.7,2570.26c4.393,-12.037 4.841,-13.315 -68.172,-106.114c-42.333,-53.766 -106.068,-133.165 -189.48,-236.074c-1063.89,-1310.14 -5312.66,-6426.48 -5769.05,-6967.03c-10.526,-5.492 -24.626,1.485 -26.596,13.224c15.386,23.814 -1490.79,7584.95 -1435.97,7592.79c10.212,2.015 20.053,-4.635 21.997,-14.774l101.279,-528.534c911.585,-427.839 1876.69,135.349 2293.52,591.384c39.573,334.829 61.785,544.046 60.225,579.575c-3.683,7.72 -1.677,17.248 5.334,22.778c5.884,4.815 14.799,5.461 21.434,1.704c14.754,-8.337 18.273,-10.324 -23.298,-378.582c-7.562,-67.002 -16.454,-143.732 -26.586,-229.931c628.893,-562.602 1577.78,-512.618 2670.72,433.906c-0.023,0.03 464.502,1015.29 464.502,1015.29c4.194,9.29 15.379,13.665 24.856,9.311c9.408,-4.265 13.575,-15.378 9.253,-24.813l-462.801,-1011.56c405.113,-1012.15 1140.86,-1444.75 2112.61,-994.175c106.417,131.954 169.547,212.274 180.279,229.972c4,17.571 30.204,18.717 35.94,1.655" style="fill:#fff;fill-rule:nonzero;"/><path d="M17829.3,6769.45c392.128,170.204 698.455,545.288 911.018,1114.92l687.703,-1362.78c-302.692,-931.714 -1120.98,-1046.58 -1838.25,-734.495c-382.071,429.225 -691.888,778.909 -890.96,1006.3c410.578,-158.77 800.029,-167.378 1130.48,-23.938Zm2310.45,432.846c477.677,-86.038 984.483,41.261 1305.73,361.265c69.012,-437.261 150.198,-932.119 233.056,-1433.38c-580.388,-362.786 -1332.12,-319.932 -2215.19,404.598l-670.313,1328.33c467.056,-366.656 919.79,-588.859 1346.72,-660.811Zm2011.76,-97.594c532.954,-255.2 1100.6,-287.308 1630.93,-35.032l-185.071,-1215.59c-789.699,-368.629 -1533.37,-85.73 -1882.74,287.166c-93.736,566.981 -173.517,1056.17 -230.235,1415.33c91.729,-85.263 333.499,-293.069 667.107,-451.875Zm375.021,-5786.47c89.881,-111.61 234.419,-183.514 369.806,-68.662l-168.882,-1109.26c-61.432,359.323 -129.314,757.168 -200.924,1177.92Zm-799.885,-152.295c88.843,-28.129 235.381,-42.488 352.528,102.04l569.31,-1128.1c-281.317,312.935 -592.722,659.568 -921.838,1026.06Zm-2331.68,2600.3c510.647,-294.072 959.321,-206.863 1276.07,292.181l563.794,-1117.18c-318.439,-683.456 -883.037,-233.795 -1130.36,32.971c-238.51,266.086 -476.277,531.511 -709.505,792.032Zm686.258,1460.94c-213.549,-297.199 -575.406,-480.622 -994.912,-503.543c-303.413,-16.576 -593.441,60.013 -705.262,186.257c-3.838,4.318 -9.182,6.361 -14.502,6.257c-257.362,288.087 -499.239,559.226 -718.788,805.779c726.775,-281.304 1500.15,-127.28 1803.7,753.264l629.763,-1248.01Zm1790.31,-256.336c-294.213,-129.272 -1033.86,-357.389 -1753.36,266.298l-613.158,1215.09c639.821,-532.445 1515.25,-795.835 2180.34,-363.288c55.394,-334.749 117.522,-707.945 186.179,-1118.1Zm505.499,-3732.58c54.177,22.308 88.467,61.974 109.042,95.21c95.444,-561.051 168.799,-990.945 202.949,-1190.83l-564.407,1118.49c97.519,-43.996 182.289,-51.758 252.416,-22.878Zm-640.983,792.865c231.76,-174.282 487.132,-203.591 632.322,-5.096c37.695,-222.054 73.555,-433.045 106.88,-629.011c-55.773,-148.58 -202.347,-179.856 -378.845,-80.025l-360.357,714.132Zm622.982,49.86c-135.009,-231.444 -407.079,-188.037 -661.708,26.908l-350.021,693.624c318.118,-280.268 675.802,-143.74 877.717,70.316c46.258,-273.36 91.276,-538.903 134.012,-790.848Zm-783.98,1646.57c163.593,19.683 323.287,80.59 474.899,180.935c56.302,-334.183 112.537,-667.208 167.13,-989.818c-211.269,-233.97 -583.572,-381.386 -919.364,-18.91l-562.978,1115.64c265.306,-226.246 547.594,-323.096 840.313,-287.843Zm442.656,372.298c8.491,-50.285 16.96,-100.6 25.428,-150.916c-213.02,-143.643 -756.216,-409.388 -1355.13,158.996l-527.361,1045.08c500.982,-408.699 1141.3,-475.355 1717.27,-220.327c43.988,-262.781 90.597,-540.463 139.79,-832.835Zm-1916.95,-447.913c-234.281,-54.051 -502.337,22.284 -790.67,209.099c-287.773,321.456 -567.874,634.602 -833.097,931.457c499.186,-249.665 1313.11,-57.179 1623.25,397.053l551.052,-1091.97c-153.676,-248.424 -338.864,-398.384 -550.534,-445.636Zm231.79,-932.182c333.72,-249.88 705.93,-268.877 919.331,174.112c4.96,-5.431 9.931,-10.778 14.916,-16.04l393.66,-780.05c-151.031,-219.951 -441.371,-226.452 -635.724,-149.775c-227.946,254.03 -459.872,512.571 -692.183,771.753Zm742.164,-827.489c214.089,-62.207 465.422,-18.382 604.612,168.076l381.07,-755.086c-159.585,-214.68 -382.71,-79.577 -393.328,-72.948c-192.519,214.451 -390.796,435.311 -592.354,659.958Zm1830.73,-582.922c-168.365,-183.04 -330.45,-10.447 -393.208,92.844c-33.483,196.864 -67.75,398.494 -102.544,603.272c136.149,-167.145 367.631,-290.293 585.322,-107.7l-89.57,-588.416Zm98.377,646.132c-256.036,-250.621 -508.088,-17.806 -607.675,129.939c-41.407,243.926 -83.442,492.045 -125.725,741.727c198.412,-279.859 525.482,-412.953 848.834,-113.602l-115.434,-758.064Zm124.556,818.012c-381.821,-385.373 -720.394,-115.179 -873.627,146.309c-53.547,316.502 -107.331,634.978 -160.433,950.195c281.644,-331.365 740.102,-473.681 1170.34,-201.295l-136.282,-895.209Zm143.686,943.861c-503.348,-333.716 -978.351,-65.437 -1190.16,230.044c-55.37,318.201 -106.659,633.95 -158.387,939.496c345.591,-332.085 923.036,-550.945 1501.83,-162.818l-153.277,-1006.72Zm161.091,1058c-408.388,-293.949 -796.164,-238.961 -1050.07,-140.574c-277.958,107.699 -462.722,293.545 -469.684,327.242c-72.101,388.54 -128.414,768.622 -188.24,1115.56c480.325,-456.651 1211.24,-564.199 1865.54,-267.301l-157.549,-1034.93Zm-7013.92,2303.77c-3.929,-12.196 -4.328,-13.49 72.18,-103.43c44.358,-52.108 111.083,-129.012 198.368,-228.657c1113.21,-1268.51 5554.52,-6218.66 6031.23,-6741.35c10.728,-5.086 24.552,2.425 26.071,14.231c-16.286,23.208 1199.66,7636.4 1144.58,7642.14c-10.282,1.623 -19.861,-5.398 -21.416,-15.604l-80.995,-532.02c-894.558,-462.38 -1880.49,63.495 -2314.45,503.259c-52.348,333.072 -82.543,541.287 -82.343,576.849c3.386,7.855 1.016,17.3 -6.201,22.558c-6.064,4.586 -14.997,4.891 -21.483,0.883c-14.425,-8.895 -17.866,-11.015 37.756,-377.414c10.119,-66.664 21.939,-142.998 35.36,-228.747c-606.921,-586.236 -1557.02,-572.569 -2685.36,331.475c0.022,0.031 -502.985,996.785 -502.985,996.785c-4.546,9.123 -15.891,13.067 -25.194,8.353c-9.239,-4.621 -12.978,-15.885 -8.298,-25.148l501.144,-993.129c-366.114,-1026.9 -1084.78,-1487.31 -2073.05,-1074.22c-111.385,127.789 -177.54,205.636 -188.941,222.911c-4.668,17.405 -30.897,17.548 -35.977,0.28" style="fill:#fff;fill-rule:nonzero;"/></g></svg>